<svg xmlns="http://www.w3.org/2000/svg" viewBox="0 0 1200 800" width="1200" height="800" role="img"><title>FowlCast marsh at dawn</title><desc>A marsh contour map at dawn with a northwest wind. A blind sits on the upwind edge of a pond with an 18-decoy J-hook spread trailing downwind, and a line of ducks swings in from the north, circles downwind, and turns into the wind toward the landing pocket. Beside it, a mallard activity score of 0.81, blending a model score of 0.79 with a rules score of 0.84, broken down across ten factors led by cold-front timing.</desc><style>.wind{animation:wind 3s linear infinite}@keyframes wind{to{stroke-dashoffset:-56}}.flight{animation:flight 1.8s linear infinite}@keyframes flight{to{stroke-dashoffset:-22}}.flap{transform-box:fill-box;transform-origin:center;animation:flap .9s ease-in-out infinite alternate}@keyframes flap{to{transform:scaleY(.55)}} @media (prefers-reduced-motion: reduce) { * { animation: none !important; } }</style>
<defs>
  <linearGradient id="bg" x1="0" y1="0" x2="0" y2="1"><stop offset="0" stop-color="#18201B"/><stop offset="1" stop-color="#111713"/></linearGradient>
  <linearGradient id="marsh" x1="0" y1="0" x2="0" y2="1"><stop offset="0" stop-color="#1F2B22"/><stop offset="1" stop-color="#172019"/></linearGradient>
  <radialGradient id="dawn" cx="1" cy="0" r="1"><stop offset="0" stop-color="#EC9268" stop-opacity="0.32"/><stop offset="0.55" stop-color="#C75B30" stop-opacity="0.08"/><stop offset="1" stop-color="#C75B30" stop-opacity="0"/></radialGradient>
  <linearGradient id="pond" x1="1" y1="0" x2="0" y2="1"><stop offset="0" stop-color="#2A4F60"/><stop offset="1" stop-color="#1B3A4B"/></linearGradient>
  <clipPath id="map"><rect x="232" y="132" width="408" height="470" rx="10"/></clipPath>
</defs>
<rect width="1200" height="800" fill="url(#bg)"/>
<text x="232" y="108" font-family="ui-monospace, SFMono-Regular, Menlo, Consolas, 'DejaVu Sans Mono', monospace" font-size="12" fill="#F4EFE3" fill-opacity="0.6" letter-spacing="2" text-anchor="start">FRONT PASSED 18 H AGO · WIND NW 14 MPH</text>
<rect x="232" y="132" width="408" height="470" rx="10" fill="url(#marsh)"/>
<g clip-path="url(#map)">
<rect x="232" y="132" width="408" height="470" fill="url(#dawn)"/>
<path d="M592.2 395 C590.6 400.3 588.3 405.4 585.9 410.4 C583.6 415.4 580.8 420.1 578 424.7 C575.1 429.4 572.1 433.8 568.9 438.2 C565.7 442.5 562.5 446.7 558.9 450.8 C555.3 454.9 551.6 458.9 547.5 462.6 C543.4 466.4 539.1 470 534.4 473.3 C529.7 476.6 524.7 479.7 519.5 482.5 C514.3 485.2 508.7 487.7 503.1 489.9 C497.4 492.1 491.5 494 485.6 495.7 C479.7 497.5 473.7 498.9 467.6 500.3 C461.5 501.6 455.4 502.8 449.1 503.8 C442.8 504.8 436.5 505.7 430 506.3 C423.5 506.9 416.9 507.4 410.3 507.5 C403.6 507.6 396.8 507.4 390.1 506.7 C383.4 506 376.6 505 370.2 503.3 C363.7 501.7 357.3 499.6 351.4 497.1 C345.5 494.6 339.9 491.5 334.7 488.1 C329.5 484.8 324.8 481 320.4 477.2 C316.1 473.3 312.2 469.1 308.4 465 C304.7 460.8 301.3 456.5 298 452.1 C294.8 447.8 291.6 443.4 288.6 438.9 C285.6 434.4 282.7 429.9 280.1 425.1 C277.4 420.4 274.8 415.5 272.8 410.5 C270.8 405.5 269 400.3 268 395 C267 389.7 266.5 384.2 266.9 378.9 C267.4 373.6 268.5 368.1 270.5 362.9 C272.4 357.8 275.3 352.7 278.7 348 C282.1 343.3 286.4 338.8 290.9 334.8 C295.4 330.7 300.6 327 305.8 323.5 C311 320.1 316.7 317 322.2 314.2 C327.8 311.3 333.6 308.8 339.4 306.4 C345.1 304 350.9 301.9 356.8 299.9 C362.7 298 368.6 296.2 374.6 294.7 C380.6 293.2 386.7 291.9 392.8 291 C399 290 405.2 289.3 411.4 288.9 C417.6 288.5 423.8 288.5 430 288.6 C436.2 288.8 442.3 289.3 448.5 289.9 C454.6 290.5 460.6 291.3 466.7 292.2 C472.8 293.1 478.9 294.2 485.1 295.3 C491.3 296.4 497.5 297.6 503.9 299 C510.2 300.5 516.8 301.9 523.3 303.8 C529.7 305.8 536.4 307.8 542.7 310.4 C549.1 313.1 555.5 316 561.1 319.5 C566.8 323 572.3 327 576.8 331.4 C581.3 335.8 585.3 340.8 588.2 345.8 C591.2 350.9 593.2 356.5 594.5 362 C595.7 367.4 595.8 373.2 595.5 378.7 C595.1 384.2 593.8 389.7 592.2 395 Z" fill="none" stroke="#9A8E76" stroke-opacity="0.34" stroke-width="1"/>
<path d="M621.6 395 C619.6 401.3 616.9 407.3 614.1 413.2 C611.3 419 608.1 424.6 604.7 430.1 C601.4 435.6 597.9 440.9 594.2 446 C590.5 451.2 586.7 456.2 582.5 461 C578.3 465.9 574 470.6 569.2 475.1 C564.4 479.5 559.2 483.8 553.7 487.8 C548.2 491.7 542.3 495.4 536.1 498.7 C529.9 502 523.3 504.9 516.7 507.6 C510 510.3 503.1 512.5 496.1 514.6 C489.1 516.7 481.9 518.5 474.7 520.1 C467.5 521.8 460.2 523.2 452.7 524.5 C445.3 525.7 437.7 526.8 430 527.6 C422.3 528.4 414.4 529 406.5 529.1 C398.5 529.1 390.4 528.9 382.4 528.1 C374.5 527.2 366.4 525.9 358.8 524 C351.1 522 343.5 519.5 336.5 516.4 C329.5 513.3 322.9 509.6 316.8 505.7 C310.7 501.7 305.1 497.2 299.9 492.6 C294.7 488 290.1 483 285.6 478.1 C281.1 473.2 277.1 468.1 273.1 462.9 C269.2 457.8 265.4 452.6 261.8 447.3 C258.2 441.9 254.6 436.5 251.4 430.9 C248.3 425.3 245.2 419.5 242.8 413.5 C240.4 407.5 238.3 401.3 237.2 395 C236.2 388.7 235.7 382.2 236.3 375.9 C236.9 369.5 238.4 363.1 240.8 357 C243.3 350.9 246.8 344.9 250.9 339.4 C255 333.8 260.2 328.6 265.6 323.8 C271 319 277.1 314.6 283.3 310.6 C289.5 306.6 296.2 302.9 302.8 299.6 C309.4 296.2 316.1 293.2 322.9 290.3 C329.7 287.5 336.5 284.9 343.4 282.6 C350.4 280.2 357.3 278.1 364.4 276.3 C371.5 274.5 378.7 272.9 385.9 271.7 C393.2 270.5 400.6 269.6 407.9 269.1 C415.2 268.6 422.7 268.5 430 268.6 C437.3 268.8 444.7 269.3 452 269.9 C459.3 270.5 466.5 271.5 473.8 272.5 C481.1 273.5 488.3 274.6 495.8 275.9 C503.2 277.2 510.7 278.5 518.4 280.2 C526 281.9 533.9 283.6 541.6 285.9 C549.4 288.2 557.3 290.7 564.9 293.9 C572.4 297 579.9 300.6 586.6 304.9 C593.3 309.1 599.7 314 604.9 319.2 C610.2 324.5 614.7 330.5 618 336.6 C621.4 342.7 623.6 349.3 624.9 355.8 C626.2 362.3 626.3 369.1 625.7 375.7 C625.1 382.2 623.5 388.7 621.6 395 Z" fill="none" stroke="#9A8E76" stroke-opacity="0.2" stroke-width="1"/>
<path d="M650.6 395 C648.3 402.2 645.1 409.2 641.9 415.9 C638.7 422.7 635 429.1 631.2 435.4 C627.5 441.8 623.5 447.8 619.3 453.8 C615.1 459.8 610.8 465.6 606 471.2 C601.2 476.8 596.2 482.3 590.7 487.5 C585.2 492.7 579.3 497.7 573 502.2 C566.6 506.8 559.8 511.1 552.7 514.9 C545.6 518.7 538 522.2 530.3 525.3 C522.6 528.4 514.6 531.1 506.5 533.5 C498.4 536 490.2 538.1 481.8 540.1 C473.5 542.1 465 543.8 456.4 545.3 C447.7 546.8 439 548.1 430 549 C421 550 411.9 550.7 402.7 550.8 C393.4 550.9 384 550.6 374.8 549.6 C365.5 548.6 356.2 547 347.3 544.7 C338.5 542.4 329.7 539.3 321.7 535.7 C313.6 532.2 305.9 527.8 298.9 523.2 C291.8 518.6 285.4 513.3 279.3 508 C273.3 502.7 267.9 497 262.7 491.3 C257.5 485.5 252.8 479.7 248.2 473.7 C243.5 467.8 239.1 461.8 234.8 455.6 C230.6 449.5 226.4 443.2 222.7 436.7 C219 430.1 215.4 423.4 212.7 416.5 C209.9 409.5 207.6 402.3 206.4 395 C205.2 387.7 204.8 380.2 205.6 372.8 C206.5 365.5 208.4 358.1 211.3 351.1 C214.3 344.1 218.5 337.2 223.4 330.8 C228.2 324.5 234.3 318.5 240.6 313 C246.8 307.5 254 302.5 261.1 297.8 C268.3 293.2 275.9 289 283.5 285.1 C291.1 281.2 298.8 277.7 306.6 274.4 C314.4 271.1 322.2 268.1 330.2 265.3 C338.1 262.6 346.1 260 354.3 257.9 C362.4 255.7 370.7 253.9 379.1 252.4 C387.4 251 395.9 250 404.4 249.3 C412.9 248.7 421.5 248.5 430 248.5 C438.5 248.6 447 249.1 455.5 249.8 C464 250.5 472.4 251.4 480.9 252.5 C489.4 253.6 497.9 254.8 506.6 256.3 C515.3 257.7 524.1 259.2 533.1 261.1 C542 263 551.2 265.1 560.2 267.7 C569.3 270.4 578.6 273.3 587.2 277.1 C595.9 280.8 604.7 285.1 612.3 290.1 C620 295.1 627.2 300.8 633.2 307 C639.1 313.2 644.1 320.2 647.8 327.3 C651.4 334.5 653.8 342.2 655.2 349.8 C656.5 357.3 656.4 365.2 655.6 372.7 C654.8 380.3 652.8 387.8 650.6 395 Z" fill="none" stroke="#9A8E76" stroke-opacity="0.2" stroke-width="1"/>
<path d="M679.2 395 C676.5 403.1 673 411 669.3 418.6 C665.7 426.3 661.6 433.6 657.4 440.7 C653.3 447.9 648.9 454.8 644.2 461.5 C639.5 468.3 634.7 474.9 629.4 481.3 C624 487.7 618.4 494 612.2 499.9 C606 505.7 599.3 511.4 592.2 516.6 C585 521.8 577.3 526.7 569.2 531.1 C561.2 535.5 552.6 539.4 543.9 543 C535.2 546.5 526.1 549.6 517 552.5 C507.8 555.4 498.5 557.9 489 560.2 C479.5 562.4 469.9 564.5 460.1 566.3 C450.2 568 440.2 569.6 430 570.7 C419.8 571.7 409.3 572.6 398.8 572.7 C388.3 572.8 377.5 572.5 367 571.3 C356.5 570.1 345.9 568.2 335.8 565.5 C325.8 562.8 315.9 559.2 306.7 555.1 C297.6 551 288.9 546 280.9 540.7 C272.9 535.4 265.6 529.4 258.8 523.4 C252 517.3 245.8 510.9 239.9 504.4 C233.9 497.9 228.5 491.3 223.1 484.6 C217.8 477.9 212.6 471.1 207.7 464.1 C202.8 457 198 449.9 193.8 442.5 C189.5 435 185.4 427.4 182.4 419.4 C179.4 411.5 176.8 403.3 175.5 395 C174.3 386.7 174 378.1 175.1 369.8 C176.2 361.5 178.5 353.1 182 345.2 C185.5 337.3 190.5 329.5 196.1 322.3 C201.7 315.2 208.6 308.4 215.8 302.3 C223 296.1 231.1 290.4 239.2 285.2 C247.3 280 255.9 275.3 264.4 270.8 C273 266.4 281.7 262.4 290.4 258.6 C299.2 254.8 308 251.3 317 248.2 C325.9 245 334.9 242.1 344.2 239.6 C353.4 237.1 362.7 234.9 372.2 233.2 C381.7 231.5 391.3 230.3 400.9 229.5 C410.6 228.7 420.3 228.4 430 228.4 C439.7 228.4 449.4 228.9 459 229.5 C468.7 230.2 478.3 231.2 488.1 232.4 C497.9 233.5 507.6 234.8 517.6 236.4 C527.6 237.9 537.7 239.6 548 241.7 C558.2 243.9 568.8 246.2 579.1 249.3 C589.4 252.3 600 255.8 609.9 260.1 C619.7 264.4 629.6 269.4 638.2 275.2 C646.8 281 654.9 287.6 661.4 294.8 C667.9 302 673.4 310 677.4 318.1 C681.3 326.3 683.8 335.1 685.1 343.7 C686.4 352.3 686.1 361.3 685.1 369.8 C684.1 378.4 681.8 386.9 679.2 395 Z" fill="none" stroke="#9A8E76" stroke-opacity="0.2" stroke-width="1"/>
<path d="M707.4 395 C704.4 404.1 700.4 412.8 696.4 421.3 C692.4 429.8 688 437.9 683.4 445.9 C678.8 453.9 674 461.6 668.9 469.2 C663.8 476.8 658.5 484.2 652.6 491.4 C646.7 498.6 640.5 505.6 633.7 512.2 C626.8 518.8 619.3 525.2 611.4 531 C603.4 536.9 594.8 542.3 585.8 547.3 C576.8 552.2 567.3 556.7 557.6 560.7 C547.8 564.7 537.7 568.3 527.5 571.5 C517.3 574.8 506.8 577.7 496.2 580.3 C485.6 583 474.8 585.4 463.8 587.4 C452.7 589.4 441.5 591.2 430 592.5 C418.5 593.7 406.7 594.7 394.9 594.8 C383.1 594.8 371 594.4 359.3 593 C347.5 591.6 335.6 589.4 324.3 586.3 C313.1 583.3 302 579.2 291.8 574.5 C281.6 569.8 271.9 564.2 263 558.2 C254.1 552.3 245.9 545.6 238.3 538.8 C230.6 532 223.7 524.8 217 517.6 C210.3 510.4 204.1 503 198 495.5 C191.9 487.9 186.1 480.4 180.5 472.5 C175 464.6 169.5 456.7 164.7 448.3 C160 440 155.4 431.3 152.1 422.4 C148.7 413.6 145.9 404.3 144.7 395 C143.4 385.7 143.2 376.1 144.6 366.8 C146 357.5 148.8 348.1 152.9 339.3 C157 330.5 162.7 321.9 169.1 313.9 C175.5 306 183.3 298.5 191.4 291.7 C199.5 284.8 208.5 278.6 217.5 272.7 C226.6 266.9 236.1 261.6 245.6 256.7 C255.1 251.7 264.7 247.2 274.4 242.9 C284.1 238.6 293.9 234.7 303.8 231.1 C313.8 227.5 323.8 224.1 334 221.3 C344.3 218.4 354.8 215.9 365.3 214 C375.9 212 386.7 210.5 397.4 209.5 C408.2 208.6 419.1 208.2 430 208.1 C440.9 208 451.7 208.5 462.6 209.1 C473.5 209.8 484.4 210.8 495.4 211.9 C506.4 213.1 517.5 214.5 528.8 216.2 C540 217.9 551.5 219.7 563.1 222.1 C574.7 224.5 586.6 227.1 598.3 230.5 C609.9 234 621.8 238 632.8 242.9 C643.7 247.9 654.7 253.6 664.2 260.2 C673.7 266.8 682.6 274.4 689.7 282.6 C696.8 290.7 702.7 299.8 706.8 309 C711 318.2 713.6 328.1 714.8 337.8 C716 347.4 715.5 357.4 714.3 366.9 C713 376.5 710.3 385.9 707.4 395 Z" fill="none" stroke="#9A8E76" stroke-opacity="0.34" stroke-width="1"/>
<path d="M735.1 395 C731.8 405 727.5 414.6 723.2 423.9 C718.8 433.3 714 442.3 709.1 451.1 C704.1 459.9 699 468.5 693.4 476.8 C687.9 485.2 682.2 493.5 675.8 501.4 C669.4 509.4 662.6 517.2 655 524.5 C647.5 531.8 639.3 538.9 630.6 545.4 C621.8 551.9 612.3 558 602.4 563.5 C592.5 569 582 573.9 571.2 578.5 C560.5 583 549.4 587 538.1 590.7 C526.8 594.4 515.2 597.6 503.5 600.6 C491.7 603.6 479.8 606.4 467.5 608.7 C455.3 611 442.7 613.1 430 614.5 C417.3 615.8 404.1 616.9 391 617 C377.9 617 364.5 616.5 351.4 614.9 C338.4 613.3 325.2 610.8 312.8 607.3 C300.3 603.8 288.2 599.2 276.9 593.9 C265.6 588.7 255 582.3 245.1 575.7 C235.2 569.1 226.3 561.7 217.8 554.2 C209.3 546.7 201.6 538.7 194.1 530.8 C186.6 522.8 179.7 514.6 172.8 506.4 C166 498.1 159.4 489.7 153.2 481 C147 472.3 140.9 463.4 135.6 454.2 C130.3 444.9 125.3 435.3 121.6 425.4 C118 415.6 115 405.3 113.8 395 C112.6 384.7 112.6 374.1 114.3 363.8 C116 353.6 119.4 343.2 124.1 333.5 C128.7 323.8 135.2 314.4 142.4 305.7 C149.6 296.9 158.3 288.8 167.3 281.2 C176.2 273.7 186.2 266.8 196.1 260.4 C206.1 254 216.5 248.2 226.9 242.7 C237.3 237.2 247.8 232.1 258.5 227.3 C269.1 222.6 279.8 218.1 290.7 214.1 C301.6 210 312.7 206.2 323.9 203 C335.2 199.7 346.8 196.9 358.4 194.7 C370.1 192.4 382 190.7 393.9 189.5 C405.9 188.4 417.9 187.8 430 187.7 C442.1 187.5 454.1 187.9 466.3 188.5 C478.4 189.1 490.5 190.1 502.8 191.3 C515.1 192.5 527.4 193.9 540.1 195.7 C552.7 197.5 565.6 199.5 578.5 202.1 C591.4 204.8 604.7 207.7 617.6 211.6 C630.5 215.5 643.7 220 655.8 225.6 C668 231.2 680 237.7 690.3 245.2 C700.6 252.6 710.2 261.2 717.9 270.3 C725.5 279.5 731.7 289.7 736.1 299.9 C740.5 310.2 743 321.2 744.1 331.9 C745.3 342.6 744.5 353.6 743 364.1 C741.5 374.6 738.4 385 735.1 395 Z" fill="none" stroke="#9A8E76" stroke-opacity="0.2" stroke-width="1"/>
<path d="M762.5 395 C758.9 405.9 754.2 416.4 749.6 426.6 C744.9 436.8 739.8 446.6 734.5 456.2 C729.2 465.8 723.8 475.2 717.9 484.4 C711.9 493.6 705.8 502.7 698.9 511.4 C692 520.2 684.6 528.7 676.4 536.8 C668.2 544.9 659.3 552.7 649.7 559.8 C640.2 567 629.8 573.6 619 579.7 C608.2 585.8 596.7 591.3 584.9 596.3 C573.2 601.3 561 605.7 548.7 609.9 C536.3 614 523.7 617.7 510.8 621.1 C497.9 624.4 484.7 627.5 471.3 630.1 C457.8 632.7 444 635.1 430 636.6 C416 638.1 401.5 639.3 387.1 639.3 C372.7 639.4 357.9 638.7 343.6 636.9 C329.3 635 314.8 632.1 301.2 628.2 C287.6 624.3 274.3 619.2 261.9 613.3 C249.6 607.5 238 600.5 227.2 593.2 C216.4 585.9 206.6 577.8 197.3 569.6 C187.9 561.4 179.4 552.7 171.2 544 C162.9 535.2 155.2 526.4 147.6 517.3 C140.1 508.2 132.7 499 125.8 489.5 C118.9 480 112.1 470.2 106.3 460 C100.6 449.9 95.1 439.3 91.2 428.5 C87.3 417.6 84.2 406.3 83 395 C81.8 383.7 82.1 372.1 84.1 360.8 C86.2 349.6 90.1 338.3 95.4 327.8 C100.8 317.2 108 306.9 116 297.5 C124 288 133.6 279.1 143.4 270.9 C153.3 262.7 164.1 255.3 175 248.2 C185.8 241.2 197.1 234.9 208.4 228.8 C219.7 222.7 231.1 217.1 242.6 211.9 C254.2 206.6 265.8 201.6 277.6 197.1 C289.5 192.5 301.5 188.3 313.8 184.7 C326.2 181 338.7 177.8 351.5 175.3 C364.3 172.8 377.3 170.8 390.4 169.4 C403.5 168.1 416.7 167.4 430 167.1 C443.3 166.8 456.5 167.1 469.9 167.6 C483.3 168.2 496.7 169.1 510.3 170.4 C523.9 171.6 537.6 173 551.5 175 C565.5 176.9 579.8 179 594.1 181.9 C608.3 184.8 623.1 188.1 637.2 192.4 C651.4 196.8 665.9 201.9 679.1 208.2 C692.3 214.5 705.3 221.8 716.5 230.1 C727.6 238.5 737.9 248 746 258.2 C754.1 268.3 760.6 279.6 765.1 290.9 C769.6 302.2 772 314.3 773.1 326.1 C774.1 337.8 773.1 349.8 771.3 361.3 C769.6 372.8 766.1 384.1 762.5 395 Z" fill="none" stroke="#9A8E76" stroke-opacity="0.2" stroke-width="1"/>
<path d="M789.5 395 C785.6 406.8 780.6 418.1 775.7 429.1 C770.7 440.2 765.3 450.8 759.8 461.3 C754.2 471.7 748.4 481.9 742.1 492 C735.8 502 729.3 511.9 721.9 521.4 C714.5 530.9 706.6 540.3 697.8 549.1 C689 557.9 679.3 566.4 669 574.2 C658.6 582 647.3 589.3 635.6 596 C623.9 602.6 611.4 608.6 598.7 614.2 C586 619.7 572.8 624.6 559.3 629.2 C545.9 633.8 532.2 637.9 518.1 641.7 C504.1 645.4 489.8 648.9 475.1 651.8 C460.4 654.7 445.3 657.3 430 658.9 C414.7 660.6 398.9 661.9 383.2 661.9 C367.4 661.9 351.3 661.1 335.7 659 C320.1 656.9 304.4 653.6 289.6 649.2 C274.8 644.8 260.4 639.1 247 632.7 C233.6 626.3 221.1 618.6 209.3 610.7 C197.6 602.7 187 593.8 176.8 584.9 C166.6 576 157.3 566.6 148.2 557.2 C139.2 547.7 130.6 538.1 122.3 528.2 C114 518.4 105.9 508.4 98.3 498 C90.8 487.7 83.3 477 77 465.9 C70.7 454.8 64.8 443.3 60.7 431.5 C56.5 419.6 53.3 407.3 52.2 395 C51.2 382.7 51.7 370 54.1 357.9 C56.6 345.7 61.1 333.5 67.1 322.1 C73.1 310.7 81.1 299.6 89.9 289.4 C98.7 279.1 109.2 269.6 119.9 260.7 C130.6 251.9 142.4 243.8 154.1 236.2 C165.7 228.6 177.9 221.7 190 215 C202.2 208.4 214.4 202.3 226.9 196.4 C239.3 190.6 251.8 185.1 264.6 180.1 C277.4 175.1 290.4 170.4 303.7 166.3 C317 162.3 330.7 158.7 344.6 155.8 C358.4 153 372.6 150.8 386.8 149.2 C401.1 147.6 415.5 146.7 430 146.3 C444.5 145.8 459 146 473.6 146.5 C488.3 147 502.9 147.9 517.8 149.2 C532.8 150.4 547.8 151.9 563.2 153.9 C578.5 155.9 594.2 158.2 609.8 161.4 C625.5 164.6 641.6 168.2 657.1 173.1 C672.5 177.9 688.2 183.6 702.5 190.6 C716.8 197.6 730.8 205.8 742.7 215 C754.6 224.3 765.5 234.9 774 246 C782.5 257.2 789.2 269.6 793.8 282 C798.4 294.4 800.7 307.6 801.6 320.3 C802.5 333.1 801.2 346.1 799.2 358.5 C797.1 371 793.4 383.2 789.5 395 Z" fill="none" stroke="#9A8E76" stroke-opacity="0.2" stroke-width="1"/>
<path d="M816 395 C811.8 407.6 806.6 419.8 801.4 431.7 C796.2 443.6 790.6 455 784.8 466.3 C778.9 477.6 773 488.6 766.3 499.5 C759.7 510.3 752.8 521 744.9 531.4 C737.1 541.7 728.6 551.9 719.2 561.4 C709.7 571 699.3 580.2 688.2 588.6 C677.1 597.1 664.9 605 652.3 612.3 C639.7 619.5 626.3 626.1 612.6 632.1 C598.8 638.2 584.6 643.6 570.1 648.6 C555.6 653.7 540.7 658.3 525.5 662.4 C510.3 666.6 494.8 670.4 478.9 673.6 C463 676.8 446.6 679.6 430 681.5 C413.4 683.3 396.2 684.6 379.2 684.5 C362.1 684.5 344.6 683.5 327.8 681.1 C310.9 678.7 293.9 675.1 278 670.3 C262 665.4 246.5 659.1 232.1 652.1 C217.7 645.1 204.1 636.7 191.5 628.1 C178.9 619.5 167.3 609.9 156.3 600.3 C145.3 590.7 135.2 580.5 125.3 570.4 C115.4 560.2 106.1 549.8 97 539.2 C87.9 528.6 79 517.8 70.7 506.6 C62.5 495.4 54.4 483.9 47.6 471.8 C40.8 459.8 34.5 447.3 30.2 434.5 C25.8 421.7 22.6 408.3 21.6 395 C20.6 381.7 21.5 368 24.4 354.9 C27.3 341.9 32.4 328.7 39.1 316.4 C45.7 304.2 54.6 292.3 64.2 281.4 C73.8 270.4 85.2 260.2 96.7 250.7 C108.2 241.2 120.8 232.5 133.4 224.3 C145.9 216.1 158.9 208.6 171.8 201.4 C184.8 194.2 197.9 187.5 211.1 181.1 C224.4 174.7 237.8 168.7 251.5 163.1 C265.2 157.6 279.2 152.4 293.6 147.9 C307.9 143.5 322.6 139.5 337.6 136.3 C352.5 133.1 367.9 130.6 383.3 128.8 C398.7 126.9 414.3 125.9 430 125.3 C445.7 124.7 461.4 124.8 477.4 125.2 C493.3 125.6 509.2 126.4 525.5 127.7 C541.8 128.9 558.2 130.4 574.9 132.5 C591.7 134.7 608.8 137.1 625.8 140.6 C642.8 144.1 660.4 148.1 677.1 153.5 C693.8 158.9 710.7 165.2 726.1 173 C741.4 180.7 756.3 189.8 768.9 199.9 C781.6 210.1 792.9 221.8 801.8 234 C810.7 246.2 817.5 259.7 822.2 273.2 C826.8 286.6 829 300.9 829.8 314.7 C830.5 328.4 828.9 342.5 826.6 355.8 C824.3 369.2 820.2 382.4 816 395 Z" fill="none" stroke="#9A8E76" stroke-opacity="0.34" stroke-width="1"/>
<path d="M842.2 395 C837.7 408.5 832.3 421.5 826.9 434.2 C821.5 446.9 815.7 459.2 809.6 471.3 C803.6 483.4 797.4 495.3 790.4 507 C783.5 518.6 776.3 530.2 767.9 541.3 C759.6 552.5 750.6 563.4 740.6 573.7 C730.5 584 719.4 594 707.5 603.1 C695.6 612.3 682.6 620.8 669.1 628.7 C655.6 636.5 641.2 643.6 626.5 650.2 C611.8 656.8 596.5 662.7 580.9 668.2 C565.3 673.8 549.4 678.8 533 683.3 C516.7 687.9 499.9 692.1 482.8 695.6 C465.6 699.1 447.9 702.2 430 704.2 C412.1 706.1 393.5 707.5 375.2 707.3 C356.8 707.2 338 706 319.8 703.4 C301.7 700.7 283.5 696.6 266.4 691.3 C249.3 686 232.6 679.1 217.2 671.5 C201.7 663.8 187.3 654.8 173.7 645.5 C160.1 636.2 147.8 625.9 135.9 615.6 C124 605.3 113 594.5 102.3 583.6 C91.6 572.7 81.4 561.6 71.6 550.2 C61.7 538.8 52 527.3 43.1 515.2 C34.2 503.1 25.4 490.7 18.1 477.8 C10.9 464.8 4.2 451.3 -0.3 437.5 C-4.8 423.7 -8.1 409.2 -8.9 395 C-9.7 380.8 -8.5 366.1 -5.2 352 C-1.8 338 4 324 11.4 310.9 C18.7 297.8 28.4 285.1 38.8 273.5 C49.2 261.8 61.4 250.9 73.8 240.7 C86.1 230.6 99.6 221.3 112.9 212.5 C126.2 203.7 140 195.6 153.7 187.8 C167.5 180 181.3 172.7 195.5 165.8 C209.6 158.8 223.8 152.2 238.4 146.1 C253.1 140.1 268 134.4 283.3 129.5 C298.7 124.5 314.5 120.2 330.5 116.6 C346.6 113.1 363.1 110.3 379.7 108.2 C396.2 106.1 413.1 104.9 430 104.1 C446.9 103.3 463.9 103.3 481.2 103.6 C498.4 103.9 515.7 104.7 533.3 105.9 C550.9 107.1 568.8 108.6 586.9 110.9 C605 113.2 623.6 115.8 642 119.6 C660.4 123.4 679.3 127.9 697.2 133.8 C715.2 139.7 733.4 146.7 749.7 155.2 C766 163.8 781.8 173.8 795.1 184.9 C808.4 196 820.2 208.8 829.4 222 C838.6 235.3 845.5 249.9 850.2 264.5 C854.9 279 856.9 294.3 857.4 309.1 C858 323.9 856.1 338.9 853.5 353.2 C851 367.5 846.6 381.5 842.2 395 Z" fill="none" stroke="#9A8E76" stroke-opacity="0.2" stroke-width="1"/>
<path d="M867.9 395 C863.3 409.4 857.7 423.1 852.1 436.7 C846.5 450.2 840.6 463.3 834.4 476.3 C828.1 489.2 821.8 501.9 814.5 514.5 C807.3 527 799.7 539.4 791 551.3 C782.2 563.2 772.7 575 762 586.1 C751.3 597.1 739.5 607.8 726.8 617.6 C714.2 627.5 700.3 636.7 685.9 645.1 C671.5 653.6 656.1 661.2 640.4 668.4 C624.8 675.5 608.4 681.9 591.8 688 C575.1 694 558.1 699.5 540.6 704.4 C523 709.4 505.1 714 486.7 717.8 C468.2 721.6 449.3 724.9 430 727 C410.7 729.1 390.8 730.5 371.2 730.2 C351.5 730 331.3 728.6 311.9 725.7 C292.5 722.7 273 718.1 254.7 712.3 C236.5 706.5 218.8 699 202.3 690.8 C185.8 682.6 170.4 672.9 155.9 662.9 C141.5 652.9 128.2 641.9 115.4 630.9 C102.7 619.9 90.9 608.4 79.3 596.8 C67.8 585.2 56.8 573.4 46.1 561.2 C35.4 549.1 24.9 536.7 15.3 523.8 C5.7 510.9 -3.7 497.6 -11.4 483.7 C-19.1 469.8 -26.1 455.3 -30.8 440.5 C-35.4 425.7 -38.7 410.2 -39.3 395 C-39.9 379.8 -38.3 364.1 -34.4 349.1 C-30.6 334.2 -24.1 319.3 -16 305.4 C-8 291.5 2.5 278.1 13.7 265.7 C24.9 253.3 38 241.7 51.1 230.9 C64.3 220.1 78.5 210.3 92.6 200.8 C106.7 191.4 121.2 182.7 135.7 174.3 C150.3 165.9 164.9 158 179.8 150.4 C194.7 142.9 209.8 135.7 225.3 129.1 C240.9 122.5 256.7 116.3 273.1 110.9 C289.5 105.5 306.3 100.7 323.5 96.8 C340.6 92.9 358.3 89.8 376 87.4 C393.8 85.1 411.8 83.6 430 82.6 C448.2 81.7 466.5 81.5 485 81.7 C503.5 81.9 522.2 82.6 541.2 83.8 C560.2 85 579.5 86.6 599 89 C618.5 91.4 638.6 94.2 658.3 98.4 C678.1 102.5 698.4 107.4 717.6 113.9 C736.7 120.4 756.1 128.2 773.3 137.5 C790.6 146.8 807.2 157.8 821.2 169.9 C835.1 182 847.3 195.9 856.8 210.2 C866.2 224.5 873.2 240.3 877.8 255.9 C882.5 271.4 884.3 287.9 884.6 303.6 C885 319.4 882.8 335.3 880 350.6 C877.2 365.8 872.6 380.6 867.9 395 Z" fill="none" stroke="#9A8E76" stroke-opacity="0.2" stroke-width="1"/>
<path d="M893.3 395 C888.5 410.2 882.8 424.8 877.1 439.1 C871.4 453.5 865.4 467.4 859 481.2 C852.6 495 846.1 508.6 838.6 521.9 C831.1 535.3 823.2 548.5 814.1 561.3 C804.9 574.1 794.9 586.7 783.6 598.5 C772.3 610.3 759.7 621.7 746.3 632.2 C732.8 642.7 718.1 652.6 702.8 661.6 C687.5 670.7 671.2 679 654.5 686.7 C637.9 694.4 620.5 701.3 602.8 707.8 C585 714.3 566.9 720.3 548.2 725.7 C529.5 731.1 510.3 736.1 490.6 740.2 C470.9 744.2 450.6 747.9 430 750 C409.4 752.2 388.1 753.6 367.1 753.3 C346.1 752.9 324.5 751.3 303.9 748 C283.2 744.7 262.5 739.7 243.1 733.4 C223.7 727 204.9 718.9 187.4 710.1 C170 701.2 153.6 690.9 138.2 680.2 C122.8 669.6 108.7 657.9 95 646.2 C81.4 634.5 68.8 622.4 56.3 610 C43.9 597.7 32 585.2 20.6 572.3 C9.1 559.4 -2.2 546.2 -12.5 532.5 C-22.7 518.7 -32.8 504.5 -40.9 489.6 C-49 474.8 -56.4 459.3 -61.2 443.5 C-65.9 427.7 -69.1 411.2 -69.5 395 C-69.9 378.8 -67.8 362.1 -63.4 346.3 C-59 330.4 -51.8 314.6 -43.1 299.9 C-34.4 285.2 -23 271.1 -11 258 C0.9 244.9 14.8 232.7 28.7 221.3 C42.7 209.8 57.6 199.3 72.5 189.2 C87.3 179.2 102.5 169.9 117.8 160.8 C133.1 151.8 148.4 143.3 164.1 135.1 C179.8 127 195.7 119.1 212.1 112 C228.6 104.8 245.4 98.1 262.8 92.2 C280.1 86.3 298.1 81.1 316.3 76.8 C334.6 72.5 353.4 69.1 372.3 66.4 C391.3 63.8 410.6 62.1 430 61 C449.4 59.8 469 59.4 488.9 59.5 C508.8 59.6 528.8 60.2 549.2 61.4 C569.6 62.6 590.3 64.2 611.3 66.8 C632.2 69.4 653.7 72.4 674.8 76.9 C696 81.5 717.7 86.8 738 93.9 C758.4 101.1 778.9 109.6 797 119.7 C815.2 129.9 832.6 141.8 847.1 155 C861.5 168.1 874.2 183.1 883.8 198.5 C893.5 213.9 900.5 230.8 905 247.4 C909.6 264.1 911.2 281.5 911.4 298.3 C911.5 315 909 331.9 906 348 C903 364.1 898.2 379.8 893.3 395 Z" fill="none" stroke="#9A8E76" stroke-opacity="0.2" stroke-width="1"/>
<path d="M918.4 395 C913.4 411 907.7 426.4 901.8 441.6 C896 456.8 890 471.5 883.5 486.1 C877 500.8 870.4 515.2 862.6 529.4 C854.9 543.6 846.8 557.7 837.2 571.3 C827.6 584.9 817.1 598.3 805.2 610.9 C793.3 623.5 780 635.6 765.8 646.9 C751.6 658.1 736 668.6 719.8 678.3 C703.6 688 686.4 696.8 668.7 705.1 C651 713.3 632.7 720.9 613.8 727.9 C595 734.9 575.7 741.4 555.8 747.2 C535.9 753 515.5 758.4 494.6 762.8 C473.6 767.1 451.9 770.9 430 773.2 C408.1 775.5 385.4 776.9 363 776.4 C340.7 775.9 317.8 774 295.9 770.4 C274 766.7 252.1 761.2 231.5 754.4 C211 747.5 191.1 738.8 172.6 729.3 C154.1 719.8 136.9 708.8 120.5 697.5 C104.2 686.2 89.2 673.9 74.7 661.5 C60.1 649.1 46.6 636.3 33.3 623.3 C20.1 610.3 7.3 597.1 -5 583.4 C-17.3 569.7 -29.4 555.7 -40.3 541.1 C-51.3 526.5 -61.9 511.3 -70.5 495.6 C-79 479.8 -86.6 463.3 -91.5 446.5 C-96.3 429.7 -99.4 412.2 -99.5 395 C-99.6 377.8 -97.1 360.2 -92.1 343.4 C-87.2 326.7 -79.2 310.1 -69.8 294.6 C-60.4 279.1 -48.2 264.2 -35.5 250.4 C-22.7 236.6 -8 223.8 6.6 211.7 C21.3 199.6 37 188.5 52.5 177.8 C68.1 167 83.9 157.1 99.9 147.4 C115.9 137.8 131.9 128.5 148.4 119.8 C164.9 111 181.6 102.5 198.9 94.8 C216.2 87.1 234 79.7 252.4 73.4 C270.7 67 289.7 61.3 309.1 56.6 C328.5 51.9 348.5 48.2 368.6 45.3 C388.8 42.3 409.3 40.4 430 39 C450.7 37.6 471.6 37.1 492.8 37.1 C514 37 535.5 37.6 557.3 38.8 C579.1 40 601.3 41.6 623.7 44.3 C646 47.1 669 50.4 691.5 55.3 C714 60.2 737 66.1 758.6 73.9 C780.1 81.6 801.7 90.9 820.7 102 C839.7 113 857.9 126 872.8 140.2 C887.8 154.3 900.7 170.4 910.5 186.9 C920.4 203.4 927.3 221.4 931.8 239.1 C936.3 256.8 937.6 275.3 937.6 293 C937.5 310.7 934.7 328.5 931.6 345.5 C928.4 362.5 923.3 379 918.4 395 Z" fill="none" stroke="#9A8E76" stroke-opacity="0.34" stroke-width="1"/>
<path d="M321.2 205 C321 206.3 320.4 207.6 319.7 208.8 C319 210 318 211.1 317 212.2 C316 213.2 314.8 214.1 313.6 214.9 C312.4 215.7 311.1 216.5 309.9 217.1 C308.7 217.8 307.4 218.4 306.2 219 C304.9 219.6 303.7 220.1 302.5 220.7 C301.2 221.2 300 221.8 298.7 222.3 C297.4 222.8 296 223.4 294.6 223.9 C293.1 224.3 291.6 224.8 290 225.1 C288.4 225.4 286.7 225.7 285 225.8 C283.2 225.9 281.4 225.9 279.7 225.7 C277.9 225.5 276.1 225.1 274.5 224.6 C272.8 224 271.2 223.3 269.8 222.5 C268.5 221.6 267.2 220.6 266.1 219.6 C265.1 218.5 264.2 217.3 263.5 216.1 C262.8 214.9 262.3 213.7 262 212.4 C261.6 211.2 261.4 209.9 261.4 208.7 C261.3 207.4 261.4 206.2 261.6 205 C261.7 203.8 262 202.6 262.4 201.5 C262.8 200.3 263.2 199.2 263.8 198.1 C264.4 197 265.1 195.9 265.9 194.9 C266.7 193.9 267.6 192.9 268.7 192 C269.7 191.1 270.9 190.2 272.1 189.5 C273.3 188.7 274.7 188.1 276.1 187.5 C277.6 187 279.1 186.6 280.6 186.2 C282.1 185.9 283.7 185.6 285.3 185.5 C286.8 185.3 288.4 185.3 290 185.3 C291.6 185.3 293.1 185.4 294.7 185.6 C296.3 185.7 297.8 185.9 299.4 186.2 C301 186.5 302.6 186.8 304.1 187.2 C305.7 187.6 307.3 188.1 308.8 188.7 C310.3 189.3 311.8 190 313.2 190.9 C314.5 191.7 315.9 192.6 317 193.7 C318.1 194.7 319.1 195.9 319.8 197.1 C320.5 198.3 321.1 199.7 321.3 201 C321.5 202.3 321.5 203.7 321.2 205 Z" fill="none" stroke="#9A8E76" stroke-opacity="0.16" stroke-width="1"/>
<path d="M347.7 205 C347.2 207.4 346.2 209.8 344.9 212 C343.6 214.2 341.8 216.3 339.9 218.2 C338 220.1 335.8 221.8 333.6 223.3 C331.4 224.8 329 226.2 326.7 227.4 C324.4 228.7 322.1 229.8 319.8 230.9 C317.5 231.9 315.3 232.9 313 234 C310.7 235 308.4 236 306 237 C303.6 237.9 301.1 239 298.4 239.8 C295.8 240.7 293 241.5 290 242.1 C287 242.7 283.9 243.2 280.7 243.4 C277.5 243.6 274.1 243.5 270.9 243.2 C267.7 242.8 264.4 242.1 261.3 241.1 C258.3 240.1 255.4 238.8 252.8 237.2 C250.2 235.7 247.9 233.8 245.9 231.9 C244 229.9 242.4 227.7 241.1 225.5 C239.8 223.3 238.9 221 238.2 218.7 C237.6 216.4 237.3 214.1 237.2 211.8 C237 209.5 237.2 207.2 237.5 205 C237.8 202.8 238.3 200.6 239 198.5 C239.7 196.3 240.6 194.2 241.7 192.2 C242.8 190.2 244 188.2 245.5 186.3 C247 184.4 248.7 182.6 250.6 181 C252.5 179.3 254.7 177.7 257 176.4 C259.3 175 261.8 173.8 264.4 172.8 C267 171.8 269.8 171 272.6 170.3 C275.5 169.7 278.4 169.3 281.3 169 C284.2 168.7 287.1 168.6 290 168.6 C292.9 168.7 295.8 168.8 298.7 169.1 C301.6 169.4 304.5 169.8 307.4 170.3 C310.3 170.8 313.2 171.4 316.1 172.2 C319 172.9 321.9 173.8 324.7 175 C327.4 176.1 330.3 177.4 332.8 178.9 C335.3 180.4 337.8 182.2 339.8 184.1 C341.9 186 343.7 188.2 345 190.4 C346.4 192.7 347.3 195.2 347.8 197.6 C348.2 200 348.2 202.6 347.7 205 Z" fill="none" stroke="#9A8E76" stroke-opacity="0.16" stroke-width="1"/>
<path d="M374.1 205 C373.4 208.5 371.9 212 370 215.3 C368.1 218.5 365.5 221.5 362.8 224.3 C360 227 356.8 229.5 353.6 231.7 C350.4 233.9 346.9 235.9 343.6 237.7 C340.2 239.5 336.8 241.1 333.5 242.7 C330.2 244.3 326.9 245.8 323.5 247.2 C320.2 248.7 316.9 250.2 313.3 251.6 C309.8 253.1 306.2 254.5 302.3 255.8 C298.4 257 294.3 258.3 290 259.1 C285.7 260 281.1 260.8 276.4 261 C271.8 261.3 266.9 261.2 262.1 260.7 C257.4 260.1 252.6 259.1 248.2 257.7 C243.8 256.2 239.5 254.3 235.7 252 C232 249.8 228.6 247.1 225.7 244.2 C222.9 241.4 220.5 238.2 218.6 235 C216.8 231.8 215.5 228.3 214.5 225 C213.6 221.6 213.1 218.2 212.9 214.9 C212.8 211.6 213 208.2 213.4 205 C213.9 201.8 214.7 198.6 215.7 195.5 C216.7 192.4 218 189.3 219.5 186.3 C221.1 183.4 222.9 180.5 225.1 177.7 C227.3 175 229.7 172.3 232.5 169.9 C235.3 167.5 238.5 165.2 241.8 163.2 C245.2 161.2 248.9 159.5 252.7 158 C256.5 156.5 260.6 155.3 264.7 154.4 C268.8 153.5 273 152.9 277.3 152.5 C281.5 152.1 285.8 151.9 290 152 C294.2 152 298.5 152.3 302.7 152.6 C306.9 153 311.1 153.6 315.4 154.3 C319.6 155.1 323.8 156 328 157.1 C332.2 158.2 336.5 159.6 340.5 161.2 C344.6 162.8 348.7 164.7 352.4 166.9 C356.1 169.1 359.7 171.7 362.7 174.5 C365.7 177.3 368.3 180.5 370.3 183.7 C372.2 187 373.6 190.7 374.3 194.2 C374.9 197.7 374.8 201.5 374.1 205 Z" fill="none" stroke="#9A8E76" stroke-opacity="0.16" stroke-width="1"/>
<line class="wind" x1="-98" y1="92" x2="462" y2="652" stroke="#F4EFE3" stroke-opacity="0.07" stroke-width="1.5" stroke-dasharray="26 30"/>
<line class="wind" x1="-8" y1="92" x2="552" y2="652" stroke="#F4EFE3" stroke-opacity="0.07" stroke-width="1.5" stroke-dasharray="26 30"/>
<line class="wind" x1="82" y1="92" x2="642" y2="652" stroke="#F4EFE3" stroke-opacity="0.07" stroke-width="1.5" stroke-dasharray="26 30"/>
<line class="wind" x1="172" y1="92" x2="732" y2="652" stroke="#F4EFE3" stroke-opacity="0.07" stroke-width="1.5" stroke-dasharray="26 30"/>
<line class="wind" x1="262" y1="92" x2="822" y2="652" stroke="#F4EFE3" stroke-opacity="0.07" stroke-width="1.5" stroke-dasharray="26 30"/>
<line class="wind" x1="352" y1="92" x2="912" y2="652" stroke="#F4EFE3" stroke-opacity="0.07" stroke-width="1.5" stroke-dasharray="26 30"/>
<line class="wind" x1="442" y1="92" x2="1002" y2="652" stroke="#F4EFE3" stroke-opacity="0.07" stroke-width="1.5" stroke-dasharray="26 30"/>
<line class="wind" x1="532" y1="92" x2="1092" y2="652" stroke="#F4EFE3" stroke-opacity="0.07" stroke-width="1.5" stroke-dasharray="26 30"/>
<path d="M553.4 395 C552 398.7 550 402.3 547.9 405.8 C545.7 409.2 543.1 412.4 540.5 415.5 C537.9 418.6 535 421.5 532.3 424.4 C529.5 427.2 526.7 429.9 523.9 432.6 C521.1 435.3 518.4 437.9 515.6 440.5 C512.8 443.2 510.1 445.9 507.2 448.5 C504.3 451.2 501.4 453.9 498.1 456.6 C494.9 459.2 491.5 461.9 487.8 464.4 C484 466.9 480 469.3 475.6 471.4 C471.3 473.4 466.5 475.4 461.6 476.8 C456.7 478.3 451.4 479.4 446.2 480.1 C440.9 480.8 435.4 481.1 430 480.9 C424.6 480.8 419.2 480.2 414 479.3 C408.8 478.4 403.7 477.1 398.9 475.6 C394 474.1 389.4 472.3 384.9 470.5 C380.5 468.6 376.3 466.6 372.1 464.5 C368 462.4 364.1 460.3 360.2 458.1 C356.3 455.9 352.5 453.7 348.7 451.4 C344.9 449.1 341.1 446.8 337.4 444.3 C333.7 441.8 330 439.2 326.6 436.4 C323.1 433.6 319.7 430.7 316.7 427.5 C313.7 424.4 310.9 421 308.7 417.5 C306.5 414 304.7 410.3 303.5 406.6 C302.3 402.8 301.7 398.9 301.6 395 C301.6 391.1 302.3 387.2 303.5 383.4 C304.6 379.7 306.5 376 308.7 372.5 C310.9 369 313.7 365.6 316.7 362.5 C319.7 359.3 323.2 356.4 326.8 353.7 C330.3 350.9 334.1 348.4 338 346 C341.8 343.7 345.8 341.5 349.9 339.4 C353.9 337.4 358 335.5 362.1 333.6 C366.3 331.8 370.4 330.1 374.7 328.6 C379 327 383.3 325.5 387.7 324.2 C392.2 322.9 396.7 321.7 401.3 320.7 C405.9 319.6 410.6 318.7 415.4 318.1 C420.2 317.4 425.1 316.9 430 316.6 C434.9 316.3 439.9 316.2 444.9 316.3 C450 316.4 455 316.7 460.1 317.2 C465.1 317.7 470.2 318.4 475.2 319.2 C480.3 320.1 485.4 321.2 490.3 322.5 C495.3 323.8 500.3 325.3 505.1 327.1 C509.9 328.9 514.7 330.9 519.2 333.1 C523.7 335.4 528.1 337.9 532 340.7 C536 343.5 539.7 346.6 542.8 349.8 C545.9 353.1 548.7 356.7 550.8 360.3 C552.8 364 554.4 367.9 555.3 371.7 C556.2 375.6 556.4 379.6 556.1 383.5 C555.8 387.4 554.8 391.3 553.4 395 Z" fill="url(#pond)" stroke="#3A6475" stroke-width="1.5"/>
<path d="M340.7 516 C340.2 518.1 339.1 520.1 337.7 522 C336.4 523.8 334.5 525.6 332.6 527.1 C330.7 528.7 328.5 530.1 326.3 531.3 C324.1 532.6 321.9 533.8 319.5 534.8 C317.2 535.9 314.9 536.9 312.4 537.8 C310 538.7 307.4 539.5 304.8 540.2 C302.1 540.9 299.3 541.5 296.4 541.8 C293.5 542.2 290.5 542.4 287.5 542.4 C284.5 542.4 281.4 542.1 278.5 541.6 C275.6 541.1 272.6 540.4 270 539.5 C267.3 538.6 264.7 537.4 262.4 536.2 C260.1 535 258 533.5 256.1 532.1 C254.2 530.6 252.5 528.9 251 527.2 C249.6 525.5 248.3 523.7 247.3 521.8 C246.4 520 245.6 518 245.3 516 C245.1 514 245.1 511.9 245.6 509.9 C246.1 507.9 247.1 505.9 248.6 504.1 C250 502.3 251.9 500.5 254.1 499.1 C256.4 497.6 259.1 496.4 261.8 495.4 C264.6 494.4 267.6 493.7 270.6 493.2 C273.5 492.6 276.6 492.4 279.4 492.2 C282.3 492 285.1 492.1 287.9 492.1 C290.7 492.1 293.3 492.2 296.1 492.3 C298.8 492.4 301.5 492.5 304.3 492.7 C307.1 492.9 310.1 493.1 313 493.6 C316 494 319.1 494.6 322 495.5 C324.9 496.3 327.9 497.5 330.4 498.8 C332.9 500.2 335.3 501.9 337 503.7 C338.7 505.5 339.9 507.6 340.5 509.7 C341.2 511.7 341.1 513.9 340.7 516 Z" fill="url(#pond)" stroke="#3A6475" stroke-width="1.2"/>
<line x1="557.4" y1="395.0" x2="555.9" y2="386.0" stroke="#6E8A62" stroke-opacity="0.55" stroke-width="1.3" stroke-linecap="round"/><line x1="560.4" y1="395.0" x2="560.4" y2="382.0" stroke="#6E8A62" stroke-opacity="0.55" stroke-width="1.3" stroke-linecap="round"/><line x1="563.4" y1="395.0" x2="564.9" y2="387.0" stroke="#6E8A62" stroke-opacity="0.55" stroke-width="1.3" stroke-linecap="round"/><line x1="544.4" y1="416.8" x2="542.9" y2="407.8" stroke="#6E8A62" stroke-opacity="0.55" stroke-width="1.3" stroke-linecap="round"/><line x1="547.4" y1="416.8" x2="547.4" y2="403.8" stroke="#6E8A62" stroke-opacity="0.55" stroke-width="1.3" stroke-linecap="round"/><line x1="550.4" y1="416.8" x2="551.9" y2="408.8" stroke="#6E8A62" stroke-opacity="0.55" stroke-width="1.3" stroke-linecap="round"/><line x1="527.4" y1="435.2" x2="525.9" y2="426.2" stroke="#6E8A62" stroke-opacity="0.55" stroke-width="1.3" stroke-linecap="round"/><line x1="530.4" y1="435.2" x2="530.4" y2="422.2" stroke="#6E8A62" stroke-opacity="0.55" stroke-width="1.3" stroke-linecap="round"/><line x1="533.4" y1="435.2" x2="534.9" y2="427.2" stroke="#6E8A62" stroke-opacity="0.55" stroke-width="1.3" stroke-linecap="round"/><line x1="509.9" y1="452.5" x2="508.4" y2="443.5" stroke="#6E8A62" stroke-opacity="0.55" stroke-width="1.3" stroke-linecap="round"/><line x1="512.9" y1="452.5" x2="512.9" y2="439.5" stroke="#6E8A62" stroke-opacity="0.55" stroke-width="1.3" stroke-linecap="round"/><line x1="515.9" y1="452.5" x2="517.4" y2="444.5" stroke="#6E8A62" stroke-opacity="0.55" stroke-width="1.3" stroke-linecap="round"/><line x1="489.3" y1="469.8" x2="487.8" y2="460.8" stroke="#6E8A62" stroke-opacity="0.55" stroke-width="1.3" stroke-linecap="round"/><line x1="492.3" y1="469.8" x2="492.3" y2="456.8" stroke="#6E8A62" stroke-opacity="0.55" stroke-width="1.3" stroke-linecap="round"/><line x1="495.3" y1="469.8" x2="496.8" y2="461.8" stroke="#6E8A62" stroke-opacity="0.55" stroke-width="1.3" stroke-linecap="round"/><line x1="461.1" y1="483.3" x2="459.6" y2="474.3" stroke="#6E8A62" stroke-opacity="0.55" stroke-width="1.3" stroke-linecap="round"/><line x1="464.1" y1="483.3" x2="464.1" y2="470.3" stroke="#6E8A62" stroke-opacity="0.55" stroke-width="1.3" stroke-linecap="round"/><line x1="467.1" y1="483.3" x2="468.6" y2="475.3" stroke="#6E8A62" stroke-opacity="0.55" stroke-width="1.3" stroke-linecap="round"/><line x1="427.0" y1="487.9" x2="425.5" y2="478.9" stroke="#6E8A62" stroke-opacity="0.55" stroke-width="1.3" stroke-linecap="round"/><line x1="430.0" y1="487.9" x2="430.0" y2="474.9" stroke="#6E8A62" stroke-opacity="0.55" stroke-width="1.3" stroke-linecap="round"/><line x1="433.0" y1="487.9" x2="434.5" y2="479.9" stroke="#6E8A62" stroke-opacity="0.55" stroke-width="1.3" stroke-linecap="round"/><line x1="393.3" y1="482.1" x2="391.8" y2="473.1" stroke="#6E8A62" stroke-opacity="0.55" stroke-width="1.3" stroke-linecap="round"/><line x1="396.3" y1="482.1" x2="396.3" y2="469.1" stroke="#6E8A62" stroke-opacity="0.55" stroke-width="1.3" stroke-linecap="round"/><line x1="399.3" y1="482.1" x2="400.8" y2="474.1" stroke="#6E8A62" stroke-opacity="0.55" stroke-width="1.3" stroke-linecap="round"/><line x1="364.7" y1="469.9" x2="363.2" y2="460.9" stroke="#6E8A62" stroke-opacity="0.55" stroke-width="1.3" stroke-linecap="round"/><line x1="367.7" y1="469.9" x2="367.7" y2="456.9" stroke="#6E8A62" stroke-opacity="0.55" stroke-width="1.3" stroke-linecap="round"/><line x1="370.7" y1="469.9" x2="372.2" y2="461.9" stroke="#6E8A62" stroke-opacity="0.55" stroke-width="1.3" stroke-linecap="round"/><line x1="339.9" y1="455.4" x2="338.4" y2="446.4" stroke="#6E8A62" stroke-opacity="0.55" stroke-width="1.3" stroke-linecap="round"/><line x1="342.9" y1="455.4" x2="342.9" y2="442.4" stroke="#6E8A62" stroke-opacity="0.55" stroke-width="1.3" stroke-linecap="round"/><line x1="345.9" y1="455.4" x2="347.4" y2="447.4" stroke="#6E8A62" stroke-opacity="0.55" stroke-width="1.3" stroke-linecap="round"/><line x1="317.1" y1="439.0" x2="315.6" y2="430.0" stroke="#6E8A62" stroke-opacity="0.55" stroke-width="1.3" stroke-linecap="round"/><line x1="320.1" y1="439.0" x2="320.1" y2="426.0" stroke="#6E8A62" stroke-opacity="0.55" stroke-width="1.3" stroke-linecap="round"/><line x1="323.1" y1="439.0" x2="324.6" y2="431.0" stroke="#6E8A62" stroke-opacity="0.55" stroke-width="1.3" stroke-linecap="round"/><line x1="298.8" y1="418.8" x2="297.3" y2="409.8" stroke="#6E8A62" stroke-opacity="0.55" stroke-width="1.3" stroke-linecap="round"/><line x1="301.8" y1="418.8" x2="301.8" y2="405.8" stroke="#6E8A62" stroke-opacity="0.55" stroke-width="1.3" stroke-linecap="round"/><line x1="304.8" y1="418.8" x2="306.3" y2="410.8" stroke="#6E8A62" stroke-opacity="0.55" stroke-width="1.3" stroke-linecap="round"/><line x1="291.6" y1="395.0" x2="290.1" y2="386.0" stroke="#6E8A62" stroke-opacity="0.55" stroke-width="1.3" stroke-linecap="round"/><line x1="294.6" y1="395.0" x2="294.6" y2="382.0" stroke="#6E8A62" stroke-opacity="0.55" stroke-width="1.3" stroke-linecap="round"/><line x1="297.6" y1="395.0" x2="299.1" y2="387.0" stroke="#6E8A62" stroke-opacity="0.55" stroke-width="1.3" stroke-linecap="round"/><line x1="298.8" y1="371.2" x2="297.3" y2="362.2" stroke="#6E8A62" stroke-opacity="0.55" stroke-width="1.3" stroke-linecap="round"/><line x1="301.8" y1="371.2" x2="301.8" y2="358.2" stroke="#6E8A62" stroke-opacity="0.55" stroke-width="1.3" stroke-linecap="round"/><line x1="304.8" y1="371.2" x2="306.3" y2="363.2" stroke="#6E8A62" stroke-opacity="0.55" stroke-width="1.3" stroke-linecap="round"/><line x1="317.3" y1="351.1" x2="315.8" y2="342.1" stroke="#6E8A62" stroke-opacity="0.55" stroke-width="1.3" stroke-linecap="round"/><line x1="320.3" y1="351.1" x2="320.3" y2="338.1" stroke="#6E8A62" stroke-opacity="0.55" stroke-width="1.3" stroke-linecap="round"/><line x1="323.3" y1="351.1" x2="324.8" y2="343.1" stroke="#6E8A62" stroke-opacity="0.55" stroke-width="1.3" stroke-linecap="round"/><line x1="341.1" y1="335.4" x2="339.6" y2="326.4" stroke="#6E8A62" stroke-opacity="0.55" stroke-width="1.3" stroke-linecap="round"/><line x1="344.1" y1="335.4" x2="344.1" y2="322.4" stroke="#6E8A62" stroke-opacity="0.55" stroke-width="1.3" stroke-linecap="round"/><line x1="347.1" y1="335.4" x2="348.6" y2="327.4" stroke="#6E8A62" stroke-opacity="0.55" stroke-width="1.3" stroke-linecap="round"/><line x1="367.2" y1="323.2" x2="365.7" y2="314.2" stroke="#6E8A62" stroke-opacity="0.55" stroke-width="1.3" stroke-linecap="round"/><line x1="370.2" y1="323.2" x2="370.2" y2="310.2" stroke="#6E8A62" stroke-opacity="0.55" stroke-width="1.3" stroke-linecap="round"/><line x1="373.2" y1="323.2" x2="374.7" y2="315.2" stroke="#6E8A62" stroke-opacity="0.55" stroke-width="1.3" stroke-linecap="round"/><line x1="395.8" y1="314.1" x2="394.3" y2="305.1" stroke="#6E8A62" stroke-opacity="0.55" stroke-width="1.3" stroke-linecap="round"/><line x1="398.8" y1="314.1" x2="398.8" y2="301.1" stroke="#6E8A62" stroke-opacity="0.55" stroke-width="1.3" stroke-linecap="round"/><line x1="401.8" y1="314.1" x2="403.3" y2="306.1" stroke="#6E8A62" stroke-opacity="0.55" stroke-width="1.3" stroke-linecap="round"/><line x1="427.0" y1="309.6" x2="425.5" y2="300.6" stroke="#6E8A62" stroke-opacity="0.55" stroke-width="1.3" stroke-linecap="round"/><line x1="430.0" y1="309.6" x2="430.0" y2="296.6" stroke="#6E8A62" stroke-opacity="0.55" stroke-width="1.3" stroke-linecap="round"/><line x1="433.0" y1="309.6" x2="434.5" y2="301.6" stroke="#6E8A62" stroke-opacity="0.55" stroke-width="1.3" stroke-linecap="round"/><line x1="459.6" y1="310.6" x2="458.1" y2="301.6" stroke="#6E8A62" stroke-opacity="0.55" stroke-width="1.3" stroke-linecap="round"/><line x1="462.6" y1="310.6" x2="462.6" y2="297.6" stroke="#6E8A62" stroke-opacity="0.55" stroke-width="1.3" stroke-linecap="round"/><line x1="465.6" y1="310.6" x2="467.1" y2="302.6" stroke="#6E8A62" stroke-opacity="0.55" stroke-width="1.3" stroke-linecap="round"/><line x1="491.8" y1="317.2" x2="490.3" y2="308.2" stroke="#6E8A62" stroke-opacity="0.55" stroke-width="1.3" stroke-linecap="round"/><line x1="494.8" y1="317.2" x2="494.8" y2="304.2" stroke="#6E8A62" stroke-opacity="0.55" stroke-width="1.3" stroke-linecap="round"/><line x1="497.8" y1="317.2" x2="499.3" y2="309.2" stroke="#6E8A62" stroke-opacity="0.55" stroke-width="1.3" stroke-linecap="round"/><line x1="522.0" y1="329.1" x2="520.5" y2="320.1" stroke="#6E8A62" stroke-opacity="0.55" stroke-width="1.3" stroke-linecap="round"/><line x1="525.0" y1="329.1" x2="525.0" y2="316.1" stroke="#6E8A62" stroke-opacity="0.55" stroke-width="1.3" stroke-linecap="round"/><line x1="528.0" y1="329.1" x2="529.5" y2="321.1" stroke="#6E8A62" stroke-opacity="0.55" stroke-width="1.3" stroke-linecap="round"/><line x1="546.3" y1="347.2" x2="544.8" y2="338.2" stroke="#6E8A62" stroke-opacity="0.55" stroke-width="1.3" stroke-linecap="round"/><line x1="549.3" y1="347.2" x2="549.3" y2="334.2" stroke="#6E8A62" stroke-opacity="0.55" stroke-width="1.3" stroke-linecap="round"/><line x1="552.3" y1="347.2" x2="553.8" y2="339.2" stroke="#6E8A62" stroke-opacity="0.55" stroke-width="1.3" stroke-linecap="round"/><line x1="559.2" y1="370.4" x2="557.7" y2="361.4" stroke="#6E8A62" stroke-opacity="0.55" stroke-width="1.3" stroke-linecap="round"/><line x1="562.2" y1="370.4" x2="562.2" y2="357.4" stroke="#6E8A62" stroke-opacity="0.55" stroke-width="1.3" stroke-linecap="round"/><line x1="565.2" y1="370.4" x2="566.7" y2="362.4" stroke="#6E8A62" stroke-opacity="0.55" stroke-width="1.3" stroke-linecap="round"/><line x1="344.7" y1="516.0" x2="343.2" y2="507.0" stroke="#6E8A62" stroke-opacity="0.55" stroke-width="1.3" stroke-linecap="round"/><line x1="347.7" y1="516.0" x2="347.7" y2="503.0" stroke="#6E8A62" stroke-opacity="0.55" stroke-width="1.3" stroke-linecap="round"/><line x1="350.7" y1="516.0" x2="352.2" y2="508.0" stroke="#6E8A62" stroke-opacity="0.55" stroke-width="1.3" stroke-linecap="round"/><line x1="322.3" y1="538.8" x2="320.8" y2="529.8" stroke="#6E8A62" stroke-opacity="0.55" stroke-width="1.3" stroke-linecap="round"/><line x1="325.3" y1="538.8" x2="325.3" y2="525.8" stroke="#6E8A62" stroke-opacity="0.55" stroke-width="1.3" stroke-linecap="round"/><line x1="328.3" y1="538.8" x2="329.8" y2="530.8" stroke="#6E8A62" stroke-opacity="0.55" stroke-width="1.3" stroke-linecap="round"/><line x1="283.3" y1="549.3" x2="281.8" y2="540.3" stroke="#6E8A62" stroke-opacity="0.55" stroke-width="1.3" stroke-linecap="round"/><line x1="286.3" y1="549.3" x2="286.3" y2="536.3" stroke="#6E8A62" stroke-opacity="0.55" stroke-width="1.3" stroke-linecap="round"/><line x1="289.3" y1="549.3" x2="290.8" y2="541.3" stroke="#6E8A62" stroke-opacity="0.55" stroke-width="1.3" stroke-linecap="round"/><line x1="246.7" y1="534.9" x2="245.2" y2="525.9" stroke="#6E8A62" stroke-opacity="0.55" stroke-width="1.3" stroke-linecap="round"/><line x1="249.7" y1="534.9" x2="249.7" y2="521.9" stroke="#6E8A62" stroke-opacity="0.55" stroke-width="1.3" stroke-linecap="round"/><line x1="252.7" y1="534.9" x2="254.2" y2="526.9" stroke="#6E8A62" stroke-opacity="0.55" stroke-width="1.3" stroke-linecap="round"/><line x1="235.7" y1="509.0" x2="234.2" y2="500.0" stroke="#6E8A62" stroke-opacity="0.55" stroke-width="1.3" stroke-linecap="round"/><line x1="238.7" y1="509.0" x2="238.7" y2="496.0" stroke="#6E8A62" stroke-opacity="0.55" stroke-width="1.3" stroke-linecap="round"/><line x1="241.7" y1="509.0" x2="243.2" y2="501.0" stroke="#6E8A62" stroke-opacity="0.55" stroke-width="1.3" stroke-linecap="round"/><line x1="262.8" y1="488.1" x2="261.3" y2="479.1" stroke="#6E8A62" stroke-opacity="0.55" stroke-width="1.3" stroke-linecap="round"/><line x1="265.8" y1="488.1" x2="265.8" y2="475.1" stroke="#6E8A62" stroke-opacity="0.55" stroke-width="1.3" stroke-linecap="round"/><line x1="268.8" y1="488.1" x2="270.3" y2="480.1" stroke="#6E8A62" stroke-opacity="0.55" stroke-width="1.3" stroke-linecap="round"/><line x1="304.6" y1="486.5" x2="303.1" y2="477.5" stroke="#6E8A62" stroke-opacity="0.55" stroke-width="1.3" stroke-linecap="round"/><line x1="307.6" y1="486.5" x2="307.6" y2="473.5" stroke="#6E8A62" stroke-opacity="0.55" stroke-width="1.3" stroke-linecap="round"/><line x1="310.6" y1="486.5" x2="312.1" y2="478.5" stroke="#6E8A62" stroke-opacity="0.55" stroke-width="1.3" stroke-linecap="round"/><line x1="340.7" y1="501.8" x2="339.2" y2="492.8" stroke="#6E8A62" stroke-opacity="0.55" stroke-width="1.3" stroke-linecap="round"/><line x1="343.7" y1="501.8" x2="343.7" y2="488.8" stroke="#6E8A62" stroke-opacity="0.55" stroke-width="1.3" stroke-linecap="round"/><line x1="346.7" y1="501.8" x2="348.2" y2="493.8" stroke="#6E8A62" stroke-opacity="0.55" stroke-width="1.3" stroke-linecap="round"/>
<g transform="translate(346.4 376.9) rotate(-135)"><ellipse rx="5" ry="3" fill="#E8E0CD" fill-opacity="0.85"/><circle cx="4.6" cy="0" r="2" fill="#3D5A3A"/></g>
<g transform="translate(354.2 384.6) rotate(-135)"><ellipse rx="5" ry="3" fill="#E8E0CD" fill-opacity="0.85"/><circle cx="4.6" cy="0" r="2" fill="#3D5A3A"/></g>
<g transform="translate(362.0 392.4) rotate(-135)"><ellipse rx="5" ry="3" fill="#E8E0CD" fill-opacity="0.85"/><circle cx="4.6" cy="0" r="2" fill="#3D5A3A"/></g>
<g transform="translate(369.8 400.2) rotate(-135)"><ellipse rx="5" ry="3" fill="#E8E0CD" fill-opacity="0.85"/><circle cx="4.6" cy="0" r="2" fill="#3D5A3A"/></g>
<g transform="translate(377.6 408.0) rotate(-135)"><ellipse rx="5" ry="3" fill="#E8E0CD" fill-opacity="0.85"/><circle cx="4.6" cy="0" r="2" fill="#3D5A3A"/></g>
<g transform="translate(385.3 415.8) rotate(-135)"><ellipse rx="5" ry="3" fill="#E8E0CD" fill-opacity="0.85"/><circle cx="4.6" cy="0" r="2" fill="#3D5A3A"/></g>
<g transform="translate(393.1 423.5) rotate(-135)"><ellipse rx="5" ry="3" fill="#E8E0CD" fill-opacity="0.85"/><circle cx="4.6" cy="0" r="2" fill="#3D5A3A"/></g>
<g transform="translate(400.9 431.3) rotate(-135)"><ellipse rx="5" ry="3" fill="#E8E0CD" fill-opacity="0.85"/><circle cx="4.6" cy="0" r="2" fill="#3D5A3A"/></g>
<g transform="translate(408.7 439.1) rotate(-135)"><ellipse rx="5" ry="3" fill="#E8E0CD" fill-opacity="0.85"/><circle cx="4.6" cy="0" r="2" fill="#3D5A3A"/></g>
<g transform="translate(416.4 446.9) rotate(-135)"><ellipse rx="5" ry="3" fill="#E8E0CD" fill-opacity="0.85"/><circle cx="4.6" cy="0" r="2" fill="#3D5A3A"/></g>
<g transform="translate(424.2 454.7) rotate(-135)"><ellipse rx="5" ry="3" fill="#E8E0CD" fill-opacity="0.85"/><circle cx="4.6" cy="0" r="2" fill="#3D5A3A"/></g>
<g transform="translate(432.0 462.4) rotate(-135)"><ellipse rx="5" ry="3" fill="#E8E0CD" fill-opacity="0.85"/><circle cx="4.6" cy="0" r="2" fill="#3D5A3A"/></g>
<g transform="translate(453.2 469.2) rotate(-135)"><ellipse rx="5" ry="3" fill="#E8E0CD" fill-opacity="0.85"/><circle cx="4.6" cy="0" r="2" fill="#3D5A3A"/></g>
<g transform="translate(467.2 465.5) rotate(-135)"><ellipse rx="5" ry="3" fill="#E8E0CD" fill-opacity="0.85"/><circle cx="4.6" cy="0" r="2" fill="#3D5A3A"/></g>
<g transform="translate(477.5 455.2) rotate(-135)"><ellipse rx="5" ry="3" fill="#E8E0CD" fill-opacity="0.85"/><circle cx="4.6" cy="0" r="2" fill="#3D5A3A"/></g>
<g transform="translate(481.2 441.2) rotate(-135)"><ellipse rx="5" ry="3" fill="#E8E0CD" fill-opacity="0.85"/><circle cx="4.6" cy="0" r="2" fill="#3D5A3A"/></g>
<g transform="translate(477.5 427.2) rotate(-135)"><ellipse rx="5" ry="3" fill="#E8E0CD" fill-opacity="0.85"/><circle cx="4.6" cy="0" r="2" fill="#3D5A3A"/></g>
<g transform="translate(467.2 417.0) rotate(-135)"><ellipse rx="5" ry="3" fill="#E8E0CD" fill-opacity="0.85"/><circle cx="4.6" cy="0" r="2" fill="#3D5A3A"/></g>
<rect x="341" y="328" width="22" height="16" rx="3" transform="rotate(45 352 336)" fill="#C75B30" stroke="#FBF8F1" stroke-width="1.5"/>
<text x="332" y="320" font-family="ui-monospace, SFMono-Regular, Menlo, Consolas, 'DejaVu Sans Mono', monospace" font-size="10" fill="#FBF8F1" fill-opacity="1.0" letter-spacing="1.4" text-anchor="end" font-weight="bold">BLIND</text>
<circle cx="411.5" cy="388.2" r="15" fill="none" stroke="#EC9268" stroke-opacity="0.8" stroke-width="1.2" stroke-dasharray="3 4"/>
<path class="flight" d="M598 150 C650 260 640 430 560 492 C520 522 470 470 411.5 388.2" fill="none" stroke="#EC9268" stroke-opacity="0.75" stroke-width="1.6" stroke-dasharray="5 6"/>
<g transform="translate(614.0 191.9) rotate(74)"><path class="flap" style="animation-delay:-0.00s" d="M-7 -8 L2 0 L-7 8" fill="none" stroke="#FBF8F1" stroke-width="2.2" stroke-linecap="round" stroke-linejoin="round"/></g>
<g transform="translate(630.1 300.0) rotate(90)"><path class="flap" style="animation-delay:-0.25s" d="M-7 -8 L2 0 L-7 8" fill="none" stroke="#FBF8F1" stroke-width="2.2" stroke-linecap="round" stroke-linejoin="round"/></g>
<g transform="translate(610.9 418.2) rotate(112)"><path class="flap" style="animation-delay:-0.50s" d="M-7 -8 L2 0 L-7 8" fill="none" stroke="#FBF8F1" stroke-width="2.2" stroke-linecap="round" stroke-linejoin="round"/></g>
<g transform="translate(521.3 498.3) rotate(-161)"><path class="flap" style="animation-delay:-0.75s" d="M-7 -8 L2 0 L-7 8" fill="none" stroke="#FBF8F1" stroke-width="2.2" stroke-linecap="round" stroke-linejoin="round"/></g>
</g>
<circle cx="290" cy="196" r="30" fill="#111713" fill-opacity="0.75" stroke="#F4EFE3" stroke-opacity="0.35"/>
<line x1="290.0" y1="172.0" x2="290.0" y2="166.0" stroke="#F4EFE3" stroke-opacity="0.45"/>
<line x1="307.0" y1="179.0" x2="311.2" y2="174.8" stroke="#F4EFE3" stroke-opacity="0.45"/>
<line x1="314.0" y1="196.0" x2="320.0" y2="196.0" stroke="#F4EFE3" stroke-opacity="0.45"/>
<line x1="307.0" y1="213.0" x2="311.2" y2="217.2" stroke="#F4EFE3" stroke-opacity="0.45"/>
<line x1="290.0" y1="220.0" x2="290.0" y2="226.0" stroke="#F4EFE3" stroke-opacity="0.45"/>
<line x1="273.0" y1="213.0" x2="268.8" y2="217.2" stroke="#F4EFE3" stroke-opacity="0.45"/>
<line x1="266.0" y1="196.0" x2="260.0" y2="196.0" stroke="#F4EFE3" stroke-opacity="0.45"/>
<line x1="273.0" y1="179.0" x2="268.8" y2="174.8" stroke="#F4EFE3" stroke-opacity="0.45"/>
<text x="290" y="160" font-family="ui-monospace, SFMono-Regular, Menlo, Consolas, 'DejaVu Sans Mono', monospace" font-size="10" fill="#F4EFE3" fill-opacity="0.6" letter-spacing="0" text-anchor="middle">N</text>
<line x1="269.0" y1="175.0" x2="302" y2="208" stroke="#EC9268" stroke-width="2.2" stroke-linecap="round"/>
<path d="M306 199 L306 212 L293 212" fill="none" stroke="#EC9268" stroke-width="2.2" stroke-linecap="round" stroke-linejoin="round"/>
<text x="250" y="582" font-family="ui-monospace, SFMono-Regular, Menlo, Consolas, 'DejaVu Sans Mono', monospace" font-size="10" fill="#F4EFE3" fill-opacity="0.65" letter-spacing="1.2" text-anchor="start">J-HOOK · 18 DECOYS · BLIND ON THE UPWIND EDGE</text>
<text x="672" y="108" font-family="ui-monospace, SFMono-Regular, Menlo, Consolas, 'DejaVu Sans Mono', monospace" font-size="12" fill="#F4EFE3" fill-opacity="0.6" letter-spacing="2" text-anchor="start">MALLARD · PEAK MIGRATION</text>
<rect x="672" y="132" width="304" height="470" rx="10" fill="#1A241D" stroke="#F4EFE3" stroke-opacity="0.2"/>
<text x="696" y="168" font-family="ui-monospace, SFMono-Regular, Menlo, Consolas, 'DejaVu Sans Mono', monospace" font-size="11" fill="#F4EFE3" fill-opacity="0.55" letter-spacing="2" text-anchor="start">ACTIVITY</text>
<text x="692" y="230" font-family="ui-monospace, SFMono-Regular, Menlo, Consolas, 'DejaVu Sans Mono', monospace" font-size="60" fill="#FBF8F1" fill-opacity="1.0" letter-spacing="-2" text-anchor="start" font-weight="bold">0.81</text>
<text x="852" y="180" font-family="ui-monospace, SFMono-Regular, Menlo, Consolas, 'DejaVu Sans Mono', monospace" font-size="10" fill="#F4EFE3" fill-opacity="0.5" letter-spacing="1.4" text-anchor="start">MODEL</text>
<text x="952" y="180" font-family="ui-monospace, SFMono-Regular, Menlo, Consolas, 'DejaVu Sans Mono', monospace" font-size="11" fill="#F4EFE3" fill-opacity="0.9" letter-spacing="0.8" text-anchor="end">0.79</text>
<text x="852" y="202" font-family="ui-monospace, SFMono-Regular, Menlo, Consolas, 'DejaVu Sans Mono', monospace" font-size="10" fill="#F4EFE3" fill-opacity="0.5" letter-spacing="1.4" text-anchor="start">RULES</text>
<text x="952" y="202" font-family="ui-monospace, SFMono-Regular, Menlo, Consolas, 'DejaVu Sans Mono', monospace" font-size="11" fill="#F4EFE3" fill-opacity="0.9" letter-spacing="0.8" text-anchor="end">0.84</text>
<text x="852" y="224" font-family="ui-monospace, SFMono-Regular, Menlo, Consolas, 'DejaVu Sans Mono', monospace" font-size="10" fill="#F4EFE3" fill-opacity="0.5" letter-spacing="1.4" text-anchor="start">BLEND</text>
<text x="952" y="224" font-family="ui-monospace, SFMono-Regular, Menlo, Consolas, 'DejaVu Sans Mono', monospace" font-size="11" fill="#EC9268" fill-opacity="0.9" letter-spacing="0.8" text-anchor="end">60/40</text>
<line x1="692" y1="256" x2="956" y2="256" stroke="#F4EFE3" stroke-opacity="0.12"/>
<text x="696" y="288" font-family="ui-monospace, SFMono-Regular, Menlo, Consolas, 'DejaVu Sans Mono', monospace" font-size="10" fill="#EC9268" fill-opacity="1" letter-spacing="1" text-anchor="start">COLD FRONT</text>
<rect x="822" y="281" width="82" height="6" rx="3" fill="#F4EFE3" fill-opacity="0.1"/>
<rect x="822" y="281" width="72.2" height="6" rx="3" fill="#EC9268" fill-opacity="1"/>
<text x="952" y="288" font-family="ui-monospace, SFMono-Regular, Menlo, Consolas, 'DejaVu Sans Mono', monospace" font-size="10" fill="#F4EFE3" fill-opacity="0.8" letter-spacing="0.5" text-anchor="end">22/25</text>
<text x="696" y="316" font-family="ui-monospace, SFMono-Regular, Menlo, Consolas, 'DejaVu Sans Mono', monospace" font-size="10" fill="#F4EFE3" fill-opacity="0.7" letter-spacing="1" text-anchor="start">TEMP · WIND CHILL</text>
<rect x="822" y="309" width="82" height="6" rx="3" fill="#F4EFE3" fill-opacity="0.1"/>
<rect x="822" y="309" width="69.7" height="6" rx="3" fill="#E8E0CD" fill-opacity="0.75"/>
<text x="952" y="316" font-family="ui-monospace, SFMono-Regular, Menlo, Consolas, 'DejaVu Sans Mono', monospace" font-size="10" fill="#F4EFE3" fill-opacity="0.8" letter-spacing="0.5" text-anchor="end">17/20</text>
<text x="696" y="344" font-family="ui-monospace, SFMono-Regular, Menlo, Consolas, 'DejaVu Sans Mono', monospace" font-size="10" fill="#F4EFE3" fill-opacity="0.7" letter-spacing="1" text-anchor="start">PRESSURE</text>
<rect x="822" y="337" width="82" height="6" rx="3" fill="#F4EFE3" fill-opacity="0.1"/>
<rect x="822" y="337" width="71.1" height="6" rx="3" fill="#E8E0CD" fill-opacity="0.75"/>
<text x="952" y="344" font-family="ui-monospace, SFMono-Regular, Menlo, Consolas, 'DejaVu Sans Mono', monospace" font-size="10" fill="#F4EFE3" fill-opacity="0.8" letter-spacing="0.5" text-anchor="end">13/15</text>
<text x="696" y="372" font-family="ui-monospace, SFMono-Regular, Menlo, Consolas, 'DejaVu Sans Mono', monospace" font-size="10" fill="#F4EFE3" fill-opacity="0.7" letter-spacing="1" text-anchor="start">WIND</text>
<rect x="822" y="365" width="82" height="6" rx="3" fill="#F4EFE3" fill-opacity="0.1"/>
<rect x="822" y="365" width="65.6" height="6" rx="3" fill="#E8E0CD" fill-opacity="0.75"/>
<text x="952" y="372" font-family="ui-monospace, SFMono-Regular, Menlo, Consolas, 'DejaVu Sans Mono', monospace" font-size="10" fill="#F4EFE3" fill-opacity="0.8" letter-spacing="0.5" text-anchor="end">12/15</text>
<text x="696" y="400" font-family="ui-monospace, SFMono-Regular, Menlo, Consolas, 'DejaVu Sans Mono', monospace" font-size="10" fill="#F4EFE3" fill-opacity="0.7" letter-spacing="1" text-anchor="start">MOON</text>
<rect x="822" y="393" width="82" height="6" rx="3" fill="#F4EFE3" fill-opacity="0.1"/>
<rect x="822" y="393" width="49.2" height="6" rx="3" fill="#E8E0CD" fill-opacity="0.75"/>
<text x="952" y="400" font-family="ui-monospace, SFMono-Regular, Menlo, Consolas, 'DejaVu Sans Mono', monospace" font-size="10" fill="#F4EFE3" fill-opacity="0.8" letter-spacing="0.5" text-anchor="end">6/10</text>
<text x="696" y="428" font-family="ui-monospace, SFMono-Regular, Menlo, Consolas, 'DejaVu Sans Mono', monospace" font-size="10" fill="#F4EFE3" fill-opacity="0.7" letter-spacing="1" text-anchor="start">SKY · PRECIP</text>
<rect x="822" y="421" width="82" height="6" rx="3" fill="#F4EFE3" fill-opacity="0.1"/>
<rect x="822" y="421" width="65.6" height="6" rx="3" fill="#E8E0CD" fill-opacity="0.75"/>
<text x="952" y="428" font-family="ui-monospace, SFMono-Regular, Menlo, Consolas, 'DejaVu Sans Mono', monospace" font-size="10" fill="#F4EFE3" fill-opacity="0.8" letter-spacing="0.5" text-anchor="end">8/10</text>
<text x="696" y="456" font-family="ui-monospace, SFMono-Regular, Menlo, Consolas, 'DejaVu Sans Mono', monospace" font-size="10" fill="#F4EFE3" fill-opacity="0.7" letter-spacing="1" text-anchor="start">MIGRATION</text>
<rect x="822" y="449" width="82" height="6" rx="3" fill="#F4EFE3" fill-opacity="0.1"/>
<rect x="822" y="449" width="82.0" height="6" rx="3" fill="#E8E0CD" fill-opacity="0.75"/>
<text x="952" y="456" font-family="ui-monospace, SFMono-Regular, Menlo, Consolas, 'DejaVu Sans Mono', monospace" font-size="10" fill="#F4EFE3" fill-opacity="0.8" letter-spacing="0.5" text-anchor="end">10/10</text>
<text x="696" y="484" font-family="ui-monospace, SFMono-Regular, Menlo, Consolas, 'DejaVu Sans Mono', monospace" font-size="10" fill="#F4EFE3" fill-opacity="0.7" letter-spacing="1" text-anchor="start">WATER LEVEL</text>
<rect x="822" y="477" width="82" height="6" rx="3" fill="#F4EFE3" fill-opacity="0.1"/>
<rect x="822" y="477" width="65.6" height="6" rx="3" fill="#E8E0CD" fill-opacity="0.75"/>
<text x="952" y="484" font-family="ui-monospace, SFMono-Regular, Menlo, Consolas, 'DejaVu Sans Mono', monospace" font-size="10" fill="#F4EFE3" fill-opacity="0.8" letter-spacing="0.5" text-anchor="end">8/10</text>
<text x="696" y="512" font-family="ui-monospace, SFMono-Regular, Menlo, Consolas, 'DejaVu Sans Mono', monospace" font-size="10" fill="#F4EFE3" fill-opacity="0.7" letter-spacing="1" text-anchor="start">SHOOTING HOURS</text>
<rect x="822" y="505" width="82" height="6" rx="3" fill="#F4EFE3" fill-opacity="0.1"/>
<rect x="822" y="505" width="82.0" height="6" rx="3" fill="#E8E0CD" fill-opacity="0.75"/>
<text x="952" y="512" font-family="ui-monospace, SFMono-Regular, Menlo, Consolas, 'DejaVu Sans Mono', monospace" font-size="10" fill="#F4EFE3" fill-opacity="0.8" letter-spacing="0.5" text-anchor="end">10/10</text>
<text x="696" y="540" font-family="ui-monospace, SFMono-Regular, Menlo, Consolas, 'DejaVu Sans Mono', monospace" font-size="10" fill="#F4EFE3" fill-opacity="0.7" letter-spacing="1" text-anchor="start">HUNT PRESSURE</text>
<rect x="822" y="533" width="82" height="6" rx="3" fill="#F4EFE3" fill-opacity="0.1"/>
<rect x="822" y="533" width="49.2" height="6" rx="3" fill="#E8E0CD" fill-opacity="0.75"/>
<text x="952" y="540" font-family="ui-monospace, SFMono-Regular, Menlo, Consolas, 'DejaVu Sans Mono', monospace" font-size="10" fill="#F4EFE3" fill-opacity="0.8" letter-spacing="0.5" text-anchor="end">3/5</text>
<line x1="692" y1="552" x2="956" y2="552" stroke="#F4EFE3" stroke-opacity="0.12"/>
<text x="696" y="580" font-family="ui-monospace, SFMono-Regular, Menlo, Consolas, 'DejaVu Sans Mono', monospace" font-size="11" fill="#F4EFE3" fill-opacity="0.6" letter-spacing="1.4" text-anchor="start">109 / 130 PTS</text>
<text x="952" y="580" font-family="ui-monospace, SFMono-Regular, Menlo, Consolas, 'DejaVu Sans Mono', monospace" font-size="11" fill="#F4EFE3" fill-opacity="0.6" letter-spacing="1.4" text-anchor="end">RULES 0.84</text>
<line x1="232" y1="650" x2="976" y2="650" stroke="#F4EFE3" stroke-opacity="0.15"/>
<text x="232" y="684" font-family="ui-monospace, SFMono-Regular, Menlo, Consolas, 'DejaVu Sans Mono', monospace" font-size="12" fill="#F4EFE3" fill-opacity="0.6" letter-spacing="1.8" text-anchor="start">7 SPECIES · 10 FACTORS · ~45 FEATURES</text>
<text x="976" y="684" font-family="ui-monospace, SFMono-Regular, Menlo, Consolas, 'DejaVu Sans Mono', monospace" font-size="12" fill="#EC9268" fill-opacity="1.0" letter-spacing="1.8" text-anchor="end">IN DESIGN</text>
</svg>
