<svg xmlns="http://www.w3.org/2000/svg" viewBox="0 0 1200 800" width="1200" height="800" role="img"><title>Titan system sketch</title><desc>A yard map divided into zones with a trailer located by GPS pin, feeding an append-only event log (checked in, moved, door assigned, load started, load closed, departed), which projects to a floor tablet task list and an HQ dwell-time chart.</desc><style>.flow{animation:flow 1.8s linear infinite}@keyframes flow{to{stroke-dashoffset:-20}}.drop{animation:drop 2.4s ease-in-out infinite}@keyframes drop{50%{transform:translateY(-4px)}}.newest{animation:blink 2.4s ease-in-out infinite}@keyframes blink{50%{opacity:.55}} @media (prefers-reduced-motion: reduce) { * { animation: none !important; } }</style>
<defs>
  <linearGradient id="bg" x1="0" y1="0" x2="1" y2="1"><stop offset="0" stop-color="#132B39"/><stop offset="1" stop-color="#0F2230"/></linearGradient>
  <radialGradient id="glow" cx="0.5" cy="0.5" r="0.5"><stop offset="0" stop-color="#C75B30" stop-opacity="0.35"/><stop offset="1" stop-color="#C75B30" stop-opacity="0"/></radialGradient>
</defs>
<rect width="1200" height="800" fill="url(#bg)"/>
<line x1="0" y1="0" x2="0" y2="800" stroke="#F4EFE3" stroke-opacity="0.03" stroke-width="1"/>
<line x1="40" y1="0" x2="40" y2="800" stroke="#F4EFE3" stroke-opacity="0.03" stroke-width="1"/>
<line x1="80" y1="0" x2="80" y2="800" stroke="#F4EFE3" stroke-opacity="0.03" stroke-width="1"/>
<line x1="120" y1="0" x2="120" y2="800" stroke="#F4EFE3" stroke-opacity="0.03" stroke-width="1"/>
<line x1="160" y1="0" x2="160" y2="800" stroke="#F4EFE3" stroke-opacity="0.03" stroke-width="1"/>
<line x1="200" y1="0" x2="200" y2="800" stroke="#F4EFE3" stroke-opacity="0.03" stroke-width="1"/>
<line x1="240" y1="0" x2="240" y2="800" stroke="#F4EFE3" stroke-opacity="0.03" stroke-width="1"/>
<line x1="280" y1="0" x2="280" y2="800" stroke="#F4EFE3" stroke-opacity="0.03" stroke-width="1"/>
<line x1="320" y1="0" x2="320" y2="800" stroke="#F4EFE3" stroke-opacity="0.03" stroke-width="1"/>
<line x1="360" y1="0" x2="360" y2="800" stroke="#F4EFE3" stroke-opacity="0.03" stroke-width="1"/>
<line x1="400" y1="0" x2="400" y2="800" stroke="#F4EFE3" stroke-opacity="0.03" stroke-width="1"/>
<line x1="440" y1="0" x2="440" y2="800" stroke="#F4EFE3" stroke-opacity="0.03" stroke-width="1"/>
<line x1="480" y1="0" x2="480" y2="800" stroke="#F4EFE3" stroke-opacity="0.03" stroke-width="1"/>
<line x1="520" y1="0" x2="520" y2="800" stroke="#F4EFE3" stroke-opacity="0.03" stroke-width="1"/>
<line x1="560" y1="0" x2="560" y2="800" stroke="#F4EFE3" stroke-opacity="0.03" stroke-width="1"/>
<line x1="600" y1="0" x2="600" y2="800" stroke="#F4EFE3" stroke-opacity="0.03" stroke-width="1"/>
<line x1="640" y1="0" x2="640" y2="800" stroke="#F4EFE3" stroke-opacity="0.03" stroke-width="1"/>
<line x1="680" y1="0" x2="680" y2="800" stroke="#F4EFE3" stroke-opacity="0.03" stroke-width="1"/>
<line x1="720" y1="0" x2="720" y2="800" stroke="#F4EFE3" stroke-opacity="0.03" stroke-width="1"/>
<line x1="760" y1="0" x2="760" y2="800" stroke="#F4EFE3" stroke-opacity="0.03" stroke-width="1"/>
<line x1="800" y1="0" x2="800" y2="800" stroke="#F4EFE3" stroke-opacity="0.03" stroke-width="1"/>
<line x1="840" y1="0" x2="840" y2="800" stroke="#F4EFE3" stroke-opacity="0.03" stroke-width="1"/>
<line x1="880" y1="0" x2="880" y2="800" stroke="#F4EFE3" stroke-opacity="0.03" stroke-width="1"/>
<line x1="920" y1="0" x2="920" y2="800" stroke="#F4EFE3" stroke-opacity="0.03" stroke-width="1"/>
<line x1="960" y1="0" x2="960" y2="800" stroke="#F4EFE3" stroke-opacity="0.03" stroke-width="1"/>
<line x1="1000" y1="0" x2="1000" y2="800" stroke="#F4EFE3" stroke-opacity="0.03" stroke-width="1"/>
<line x1="1040" y1="0" x2="1040" y2="800" stroke="#F4EFE3" stroke-opacity="0.03" stroke-width="1"/>
<line x1="1080" y1="0" x2="1080" y2="800" stroke="#F4EFE3" stroke-opacity="0.03" stroke-width="1"/>
<line x1="1120" y1="0" x2="1120" y2="800" stroke="#F4EFE3" stroke-opacity="0.03" stroke-width="1"/>
<line x1="1160" y1="0" x2="1160" y2="800" stroke="#F4EFE3" stroke-opacity="0.03" stroke-width="1"/>
<line x1="1200" y1="0" x2="1200" y2="800" stroke="#F4EFE3" stroke-opacity="0.03" stroke-width="1"/>
<line x1="0" y1="0" x2="1200" y2="0" stroke="#F4EFE3" stroke-opacity="0.03" stroke-width="1"/>
<line x1="0" y1="40" x2="1200" y2="40" stroke="#F4EFE3" stroke-opacity="0.03" stroke-width="1"/>
<line x1="0" y1="80" x2="1200" y2="80" stroke="#F4EFE3" stroke-opacity="0.03" stroke-width="1"/>
<line x1="0" y1="120" x2="1200" y2="120" stroke="#F4EFE3" stroke-opacity="0.03" stroke-width="1"/>
<line x1="0" y1="160" x2="1200" y2="160" stroke="#F4EFE3" stroke-opacity="0.03" stroke-width="1"/>
<line x1="0" y1="200" x2="1200" y2="200" stroke="#F4EFE3" stroke-opacity="0.03" stroke-width="1"/>
<line x1="0" y1="240" x2="1200" y2="240" stroke="#F4EFE3" stroke-opacity="0.03" stroke-width="1"/>
<line x1="0" y1="280" x2="1200" y2="280" stroke="#F4EFE3" stroke-opacity="0.03" stroke-width="1"/>
<line x1="0" y1="320" x2="1200" y2="320" stroke="#F4EFE3" stroke-opacity="0.03" stroke-width="1"/>
<line x1="0" y1="360" x2="1200" y2="360" stroke="#F4EFE3" stroke-opacity="0.03" stroke-width="1"/>
<line x1="0" y1="400" x2="1200" y2="400" stroke="#F4EFE3" stroke-opacity="0.03" stroke-width="1"/>
<line x1="0" y1="440" x2="1200" y2="440" stroke="#F4EFE3" stroke-opacity="0.03" stroke-width="1"/>
<line x1="0" y1="480" x2="1200" y2="480" stroke="#F4EFE3" stroke-opacity="0.03" stroke-width="1"/>
<line x1="0" y1="520" x2="1200" y2="520" stroke="#F4EFE3" stroke-opacity="0.03" stroke-width="1"/>
<line x1="0" y1="560" x2="1200" y2="560" stroke="#F4EFE3" stroke-opacity="0.03" stroke-width="1"/>
<line x1="0" y1="600" x2="1200" y2="600" stroke="#F4EFE3" stroke-opacity="0.03" stroke-width="1"/>
<line x1="0" y1="640" x2="1200" y2="640" stroke="#F4EFE3" stroke-opacity="0.03" stroke-width="1"/>
<line x1="0" y1="680" x2="1200" y2="680" stroke="#F4EFE3" stroke-opacity="0.03" stroke-width="1"/>
<line x1="0" y1="720" x2="1200" y2="720" stroke="#F4EFE3" stroke-opacity="0.03" stroke-width="1"/>
<line x1="0" y1="760" x2="1200" y2="760" stroke="#F4EFE3" stroke-opacity="0.03" stroke-width="1"/>
<line x1="0" y1="800" x2="1200" y2="800" stroke="#F4EFE3" stroke-opacity="0.03" stroke-width="1"/>
<text x="232" y="108" font-family="ui-monospace, SFMono-Regular, Menlo, Consolas, 'DejaVu Sans Mono', monospace" font-size="12" fill="#F4EFE3" fill-opacity="0.6" letter-spacing="2.2" text-anchor="start">YARD · ZONES + GPS PINS</text>
<rect x="232" y="132" width="288" height="468" rx="10" fill="#17374A" stroke="#F4EFE3" stroke-opacity="0.25"/>
<path d="M250 150 L500 150 L500 250 L250 262 Z" fill="#F4EFE3" fill-opacity="0.04" stroke="#F4EFE3" stroke-opacity="0.45" stroke-width="1.3" stroke-dasharray="6 5"/>
<text x="260" y="170" font-family="ui-monospace, SFMono-Regular, Menlo, Consolas, 'DejaVu Sans Mono', monospace" font-size="10" fill="#F4EFE3" fill-opacity="0.5" letter-spacing="1.5" text-anchor="start">ZONE A</text>
<path d="M250 280 L380 272 L392 430 L250 440 Z" fill="#F4EFE3" fill-opacity="0.04" stroke="#F4EFE3" stroke-opacity="0.45" stroke-width="1.3" stroke-dasharray="6 5"/>
<text x="260" y="300" font-family="ui-monospace, SFMono-Regular, Menlo, Consolas, 'DejaVu Sans Mono', monospace" font-size="10" fill="#F4EFE3" fill-opacity="0.5" letter-spacing="1.5" text-anchor="start">ZONE B</text>
<path d="M400 270 L500 266 L500 440 L410 432 Z" fill="#F4EFE3" fill-opacity="0.04" stroke="#F4EFE3" stroke-opacity="0.45" stroke-width="1.3" stroke-dasharray="6 5"/>
<text x="410" y="290" font-family="ui-monospace, SFMono-Regular, Menlo, Consolas, 'DejaVu Sans Mono', monospace" font-size="10" fill="#F4EFE3" fill-opacity="0.5" letter-spacing="1.5" text-anchor="start">ZONE C</text>
<path d="M250 458 L500 452 L500 582 L250 582 Z" fill="#F4EFE3" fill-opacity="0.04" stroke="#F4EFE3" stroke-opacity="0.45" stroke-width="1.3" stroke-dasharray="6 5"/>
<text x="260" y="478" font-family="ui-monospace, SFMono-Regular, Menlo, Consolas, 'DejaVu Sans Mono', monospace" font-size="10" fill="#F4EFE3" fill-opacity="0.5" letter-spacing="1.5" text-anchor="start">ZONE D</text>
<g transform="translate(300 190) rotate(0)"><rect x="-26" y="-7" width="52" height="14" rx="2" fill="#17374A" stroke="#F4EFE3" stroke-opacity="0.7" stroke-width="1.6"/><line x1="18" y1="-7" x2="18" y2="7" stroke="#F4EFE3" stroke-opacity="0.48999999999999994" stroke-width="1.2"/></g>
<g transform="translate(370 205) rotate(0)"><rect x="-26" y="-7" width="52" height="14" rx="2" fill="#17374A" stroke="#F4EFE3" stroke-opacity="0.7" stroke-width="1.6"/><line x1="18" y1="-7" x2="18" y2="7" stroke="#F4EFE3" stroke-opacity="0.48999999999999994" stroke-width="1.2"/></g>
<g transform="translate(440 188) rotate(-4)"><rect x="-26" y="-7" width="52" height="14" rx="2" fill="#17374A" stroke="#F4EFE3" stroke-opacity="0.7" stroke-width="1.6"/><line x1="18" y1="-7" x2="18" y2="7" stroke="#F4EFE3" stroke-opacity="0.48999999999999994" stroke-width="1.2"/></g>
<g transform="translate(300 330) rotate(88)"><rect x="-26" y="-7" width="52" height="14" rx="2" fill="#17374A" stroke="#F4EFE3" stroke-opacity="0.7" stroke-width="1.6"/><line x1="18" y1="-7" x2="18" y2="7" stroke="#F4EFE3" stroke-opacity="0.48999999999999994" stroke-width="1.2"/></g>
<g transform="translate(345 340) rotate(90)"><rect x="-26" y="-7" width="52" height="14" rx="2" fill="#17374A" stroke="#F4EFE3" stroke-opacity="0.7" stroke-width="1.6"/><line x1="18" y1="-7" x2="18" y2="7" stroke="#F4EFE3" stroke-opacity="0.48999999999999994" stroke-width="1.2"/></g>
<g transform="translate(445 320) rotate(88)"><rect x="-26" y="-7" width="52" height="14" rx="2" fill="#17374A" stroke="#F4EFE3" stroke-opacity="0.7" stroke-width="1.6"/><line x1="18" y1="-7" x2="18" y2="7" stroke="#F4EFE3" stroke-opacity="0.48999999999999994" stroke-width="1.2"/></g>
<g transform="translate(470 380) rotate(92)"><rect x="-26" y="-7" width="52" height="14" rx="2" fill="#17374A" stroke="#F4EFE3" stroke-opacity="0.7" stroke-width="1.6"/><line x1="18" y1="-7" x2="18" y2="7" stroke="#F4EFE3" stroke-opacity="0.48999999999999994" stroke-width="1.2"/></g>
<g transform="translate(300 505) rotate(0)"><rect x="-26" y="-7" width="52" height="14" rx="2" fill="#17374A" stroke="#F4EFE3" stroke-opacity="0.7" stroke-width="1.6"/><line x1="18" y1="-7" x2="18" y2="7" stroke="#F4EFE3" stroke-opacity="0.48999999999999994" stroke-width="1.2"/></g>
<g transform="translate(380 520) rotate(3)"><rect x="-26" y="-7" width="52" height="14" rx="2" fill="#17374A" stroke="#F4EFE3" stroke-opacity="0.7" stroke-width="1.6"/><line x1="18" y1="-7" x2="18" y2="7" stroke="#F4EFE3" stroke-opacity="0.48999999999999994" stroke-width="1.2"/></g>
<g transform="translate(450 500) rotate(0)"><rect x="-26" y="-7" width="52" height="14" rx="2" fill="#17374A" stroke="#F4EFE3" stroke-opacity="0.7" stroke-width="1.6"/><line x1="18" y1="-7" x2="18" y2="7" stroke="#F4EFE3" stroke-opacity="0.48999999999999994" stroke-width="1.2"/></g>
<g transform="translate(300 545) rotate(0)"><rect x="-26" y="-7" width="52" height="14" rx="2" fill="#17374A" stroke="#F4EFE3" stroke-opacity="0.7" stroke-width="1.6"/><line x1="18" y1="-7" x2="18" y2="7" stroke="#F4EFE3" stroke-opacity="0.48999999999999994" stroke-width="1.2"/></g>
<g transform="translate(342 400) rotate(90)"><rect x="-26" y="-7" width="52" height="14" rx="2" fill="#17374A" stroke="#EC9268" stroke-opacity="1" stroke-width="1.6"/><line x1="18" y1="-7" x2="18" y2="7" stroke="#EC9268" stroke-opacity="0.7" stroke-width="1.2"/></g>
<circle cx="342" cy="372" r="34" fill="url(#glow)"/>
<g class="drop"><path d="M342 380 C334 368 330 362 330 356 A12 12 0 1 1 354 356 C354 362 350 368 342 380 Z" fill="#C75B30" stroke="#FBF8F1" stroke-width="1.5"/><circle cx="342" cy="356" r="4" fill="#FBF8F1"/></g>
<path d="M520 170 L548 170 M520 210 L548 210" stroke="#F4EFE3" stroke-opacity="0.5" stroke-width="2"/>
<text x="534" y="196" font-family="ui-monospace, SFMono-Regular, Menlo, Consolas, 'DejaVu Sans Mono', monospace" font-size="9" fill="#F4EFE3" fill-opacity="0.5" letter-spacing="1" text-anchor="middle">GATE</text>
<text x="600" y="108" font-family="ui-monospace, SFMono-Regular, Menlo, Consolas, 'DejaVu Sans Mono', monospace" font-size="12" fill="#F4EFE3" fill-opacity="0.6" letter-spacing="2.2" text-anchor="start">EVENT LOG</text>
<text x="700" y="108" font-family="ui-monospace, SFMono-Regular, Menlo, Consolas, 'DejaVu Sans Mono', monospace" font-size="10" fill="#EC9268" fill-opacity="0.9" letter-spacing="1.6" text-anchor="start">APPEND-ONLY</text>
<line x1="610" y1="140" x2="610" y2="534" stroke="#C75B30" stroke-opacity="0.5" stroke-width="1.5" stroke-dasharray="3 5"/>
<g>
<circle cx="610" cy="156" r="5" fill="#132B39" stroke="#C75B30" stroke-width="1.6"/>
<rect x="626" y="132" width="170" height="48" rx="6" fill="#17374A" stroke="#F4EFE3" stroke-opacity="0.22"/>
<text x="638" y="152" font-family="ui-monospace, SFMono-Regular, Menlo, Consolas, 'DejaVu Sans Mono', monospace" font-size="12" fill="#F4EFE3" fill-opacity="0.85" letter-spacing="0.4" text-anchor="start">trailer.checked_in</text>
<text x="638" y="170" font-family="ui-monospace, SFMono-Regular, Menlo, Consolas, 'DejaVu Sans Mono', monospace" font-size="10" fill="#F4EFE3" fill-opacity="0.5" letter-spacing="1.2" text-anchor="start">GATE · 06:12</text>
</g>
<g>
<circle cx="610" cy="226" r="5" fill="#132B39" stroke="#C75B30" stroke-width="1.6"/>
<rect x="626" y="202" width="170" height="48" rx="6" fill="#17374A" stroke="#F4EFE3" stroke-opacity="0.22"/>
<text x="638" y="222" font-family="ui-monospace, SFMono-Regular, Menlo, Consolas, 'DejaVu Sans Mono', monospace" font-size="12" fill="#F4EFE3" fill-opacity="0.85" letter-spacing="0.4" text-anchor="start">trailer.moved</text>
<text x="638" y="240" font-family="ui-monospace, SFMono-Regular, Menlo, Consolas, 'DejaVu Sans Mono', monospace" font-size="10" fill="#F4EFE3" fill-opacity="0.5" letter-spacing="1.2" text-anchor="start">YARD · 06:31</text>
</g>
<g>
<circle cx="610" cy="296" r="5" fill="#132B39" stroke="#C75B30" stroke-width="1.6"/>
<rect x="626" y="272" width="170" height="48" rx="6" fill="#17374A" stroke="#F4EFE3" stroke-opacity="0.22"/>
<text x="638" y="292" font-family="ui-monospace, SFMono-Regular, Menlo, Consolas, 'DejaVu Sans Mono', monospace" font-size="12" fill="#F4EFE3" fill-opacity="0.85" letter-spacing="0.4" text-anchor="start">door.assigned</text>
<text x="638" y="310" font-family="ui-monospace, SFMono-Regular, Menlo, Consolas, 'DejaVu Sans Mono', monospace" font-size="10" fill="#F4EFE3" fill-opacity="0.5" letter-spacing="1.2" text-anchor="start">DOCK · 06:40</text>
</g>
<g>
<circle cx="610" cy="366" r="5" fill="#132B39" stroke="#C75B30" stroke-width="1.6"/>
<rect x="626" y="342" width="170" height="48" rx="6" fill="#17374A" stroke="#F4EFE3" stroke-opacity="0.22"/>
<text x="638" y="362" font-family="ui-monospace, SFMono-Regular, Menlo, Consolas, 'DejaVu Sans Mono', monospace" font-size="12" fill="#F4EFE3" fill-opacity="0.85" letter-spacing="0.4" text-anchor="start">load.started</text>
<text x="638" y="380" font-family="ui-monospace, SFMono-Regular, Menlo, Consolas, 'DejaVu Sans Mono', monospace" font-size="10" fill="#F4EFE3" fill-opacity="0.5" letter-spacing="1.2" text-anchor="start">DOCK · 06:52</text>
</g>
<g>
<circle cx="610" cy="436" r="5" fill="#132B39" stroke="#C75B30" stroke-width="1.6"/>
<rect x="626" y="412" width="170" height="48" rx="6" fill="#17374A" stroke="#F4EFE3" stroke-opacity="0.22"/>
<text x="638" y="432" font-family="ui-monospace, SFMono-Regular, Menlo, Consolas, 'DejaVu Sans Mono', monospace" font-size="12" fill="#F4EFE3" fill-opacity="0.85" letter-spacing="0.4" text-anchor="start">load.closed</text>
<text x="638" y="450" font-family="ui-monospace, SFMono-Regular, Menlo, Consolas, 'DejaVu Sans Mono', monospace" font-size="10" fill="#F4EFE3" fill-opacity="0.5" letter-spacing="1.2" text-anchor="start">DOCK · 07:48</text>
</g>
<g class="newest">
<circle cx="610" cy="506" r="5" fill="#C75B30" stroke="#C75B30" stroke-width="1.6"/>
<rect x="626" y="482" width="170" height="48" rx="6" fill="#17374A" stroke="#EC9268" stroke-opacity="0.9"/>
<text x="638" y="502" font-family="ui-monospace, SFMono-Regular, Menlo, Consolas, 'DejaVu Sans Mono', monospace" font-size="12" fill="#EC9268" fill-opacity="1" letter-spacing="0.4" text-anchor="start">trailer.departed</text>
<text x="638" y="520" font-family="ui-monospace, SFMono-Regular, Menlo, Consolas, 'DejaVu Sans Mono', monospace" font-size="10" fill="#F4EFE3" fill-opacity="0.5" letter-spacing="1.2" text-anchor="start">GATE · 08:05</text>
</g>
<path d="M372 390 C470 396 520 250 596 226" fill="none" stroke="#EC9268" stroke-width="1.6" stroke-dasharray="5 5" class="flow"/>
<path d="M586 219 L597 226 L587 234" fill="none" stroke="#EC9268" stroke-width="1.6"/>
<text x="830" y="108" font-family="ui-monospace, SFMono-Regular, Menlo, Consolas, 'DejaVu Sans Mono', monospace" font-size="12" fill="#F4EFE3" fill-opacity="0.6" letter-spacing="2.2" text-anchor="start">PROJECTIONS</text>
<rect x="830" y="132" width="146" height="200" rx="14" fill="#0B1A24" stroke="#F4EFE3" stroke-opacity="0.55" stroke-width="1.5"/>
<rect x="840" y="146" width="126" height="172" rx="6" fill="#17374A"/>
<text x="850" y="168" font-family="ui-monospace, SFMono-Regular, Menlo, Consolas, 'DejaVu Sans Mono', monospace" font-size="9" fill="#F4EFE3" fill-opacity="0.6" letter-spacing="1.2" text-anchor="start">FLOOR · SPOTTER</text>
<rect x="850" y="184" width="106" height="30" rx="4" fill="#C75B30" fill-opacity="0.9" stroke="#F4EFE3" stroke-opacity="0"/>
<text x="858" y="203" font-family="ui-monospace, SFMono-Regular, Menlo, Consolas, 'DejaVu Sans Mono', monospace" font-size="10" fill="#FBF8F1" fill-opacity="1" letter-spacing="1" text-anchor="start">MOVE → DOOR</text>
<rect x="850" y="224" width="106" height="30" rx="4" fill="#0F2230" fill-opacity="1" stroke="#F4EFE3" stroke-opacity="0.2"/>
<text x="858" y="243" font-family="ui-monospace, SFMono-Regular, Menlo, Consolas, 'DejaVu Sans Mono', monospace" font-size="10" fill="#F4EFE3" fill-opacity="0.7" letter-spacing="1" text-anchor="start">YARD CHECK</text>
<rect x="850" y="264" width="106" height="30" rx="4" fill="#0F2230" fill-opacity="1" stroke="#F4EFE3" stroke-opacity="0.2"/>
<text x="858" y="283" font-family="ui-monospace, SFMono-Regular, Menlo, Consolas, 'DejaVu Sans Mono', monospace" font-size="10" fill="#F4EFE3" fill-opacity="0.7" letter-spacing="1" text-anchor="start">ON TIME</text>
<text x="850" y="304" font-family="ui-monospace, SFMono-Regular, Menlo, Consolas, 'DejaVu Sans Mono', monospace" font-size="9" fill="#F4EFE3" fill-opacity="0.5" letter-spacing="1" text-anchor="start">OFFLINE QUEUE · 0</text>
<rect x="830" y="360" width="146" height="170" rx="8" fill="#0B1A24" stroke="#F4EFE3" stroke-opacity="0.55" stroke-width="1.5"/>
<text x="842" y="382" font-family="ui-monospace, SFMono-Regular, Menlo, Consolas, 'DejaVu Sans Mono', monospace" font-size="9" fill="#F4EFE3" fill-opacity="0.6" letter-spacing="1.2" text-anchor="start">HQ · DWELL (P90)</text>
<rect x="844" y="471" width="11" height="34" rx="2" fill="#F4EFE3" fill-opacity="0.35"/>
<rect x="862" y="453" width="11" height="52" rx="2" fill="#F4EFE3" fill-opacity="0.35"/>
<rect x="880" y="465" width="11" height="40" rx="2" fill="#F4EFE3" fill-opacity="0.35"/>
<rect x="898" y="435" width="11" height="70" rx="2" fill="#EC9268" fill-opacity="1"/>
<rect x="916" y="459" width="11" height="46" rx="2" fill="#F4EFE3" fill-opacity="0.35"/>
<rect x="934" y="475" width="11" height="30" rx="2" fill="#F4EFE3" fill-opacity="0.35"/>
<rect x="952" y="447" width="11" height="58" rx="2" fill="#F4EFE3" fill-opacity="0.35"/>
<line x1="840" y1="506" x2="966" y2="506" stroke="#F4EFE3" stroke-opacity="0.3"/>
<line x1="796" y1="156" x2="814" y2="156" stroke="#F4EFE3" stroke-opacity="0.45" stroke-width="1.3"/>
<line x1="814" y1="156" x2="814" y2="445" stroke="#F4EFE3" stroke-opacity="0.45" stroke-width="1.3" stroke-dasharray="4 4"/>
<line x1="814" y1="232" x2="824" y2="232" stroke="#F4EFE3" stroke-opacity="0.6" stroke-width="1.3"/>
<path d="M817 227 L826 232 L817 237" fill="none" stroke="#F4EFE3" stroke-opacity="0.7" stroke-width="1.3"/>
<line x1="814" y1="445" x2="824" y2="445" stroke="#F4EFE3" stroke-opacity="0.6" stroke-width="1.3"/>
<path d="M817 440 L826 445 L817 450" fill="none" stroke="#F4EFE3" stroke-opacity="0.7" stroke-width="1.3"/>
<line x1="232" y1="650" x2="976" y2="650" stroke="#F4EFE3" stroke-opacity="0.15"/>
<text x="232" y="684" font-family="ui-monospace, SFMono-Regular, Menlo, Consolas, 'DejaVu Sans Mono', monospace" font-size="12" fill="#F4EFE3" fill-opacity="0.55" letter-spacing="1.8" text-anchor="start">THE FLOOR IS THE SOURCE OF TRUTH · STATE IS A PROJECTION OF EVENTS</text>
<text x="232" y="712" font-family="ui-monospace, SFMono-Regular, Menlo, Consolas, 'DejaVu Sans Mono', monospace" font-size="12" fill="#EC9268" fill-opacity="1.0" letter-spacing="1.8" text-anchor="start">PHASE 0 · CORE SHIPPED</text>
</svg>
